<svg width="671" height="436" viewBox="0 0 671 436" fill="none" xmlns="http://www.w3.org/2000/svg">

//unknown

<path d="M227.167 386.294C227.172 386.433 230.307 374.191 230.307 374.174C230.307 374.16 227.185 386.409 227.167 386.294Z" fill="#E97B3D" stroke="black" stroke-linecap="round"/>
<path d="M227.167 386.294C227.185 386.409 230.307 374.16 230.307 374.174C230.307 374.191 227.172 386.433 227.167 386.294ZM227.167 386.294C227.162 386.124 227.17 385.877 227.232 385.651C227.744 383.807 228.751 381.209 230.555 380.899C232.731 380.525 237.681 382.399 240.183 381.416C240.553 381.271 240.921 380.9 241.242 380.519C242.676 378.819 244.314 377.002 245.757 376.71C246.447 376.57 247.174 376.734 247.923 376.854C249.681 377.135 251.939 376.938 253.683 376.286C255.204 375.717 257.203 375.104 258.057 373.646L155 284L155 284L201.849 405.899C202.216 405.474 203.272 404.486 204.893 398.913C206.276 394.158 206.638 386.301 209.314 384.053C209.593 383.819 209.958 383.725 210.376 383.775C210.793 383.824 211.253 384.003 211.9 384.344C214.663 385.802 216.537 390.909 218.253 388.998C219.357 387.768 220.041 384.965 222.405 384.666C223.877 384.48 225.786 384.444 226.775 385.475C227.04 385.752 227.134 386.083 227.167 386.294Z" fill="#E97B3D" stroke="black" stroke-linecap="round"/>
<path d="M482.136 197.13C482.069 197.762 482.106 198.562 482 199.141L653.609 169.815C653.203 169.28 651.735 168.458 649.351 167.307L649.327 167.296C645.61 165.501 640.389 162.981 641.207 160.906C641.611 159.879 642.352 159.01 642.485 158.267C642.55 157.908 642.417 157.553 642.075 157.285C641.733 157.016 641.192 156.85 640.175 156.568C635.664 155.314 632.165 154.717 630.748 153.121C629.595 151.823 619.715 149.797 617.332 145.735C617.07 145.287 617.276 144.879 617.883 144.618C619.23 144.038 621.109 143.516 623.215 143.278C626.788 142.875 633.831 144.052 635.543 142.021C635.81 141.705 635.81 141.261 636.016 140.903C636.222 140.544 636.605 140.115 637.649 140.146C642.429 140.287 644.829 142.368 646.535 141.666C646.871 141.527 647.029 141.178 647.209 140.767C648.497 137.832 649.173 128.581 652.47 129.586C653.211 129.811 654.409 130.636 654.963 130.252C655.23 130.067 655.097 129.524 655.436 128.036C656.994 121.205 658.278 118.869 659.82 117.273C661.031 116.017 661.443 114.4 663.327 112.93C665.223 111.452 672.339 107.606 669.657 108.058C669.115 108.149 666.588 108.901 663.983 108.19C662.508 107.787 661.215 107.545 660.068 106.479C655.48 102.215 654.13 98.4491 651.918 97L482.136 197.13" fill="#61B177" stroke="black" stroke-linecap="round"/>
<path d="M376.593 223.765L281.233 257.247C281.164 253.833 280.422 249.967 280.033 248.12C279.616 246.14 279.457 244.621 279.313 240.813C279.179 237.28 279.264 230.494 279.216 226.724C279.169 222.954 279.074 222.406 279.025 200.636C279.014 195.938 279.006 190.253 279 184L376.593 223.765" fill="#5CA875" stroke="black" stroke-linecap="round"/>
<path d="M61.1752 258.923C61.6797 263.551 29.6094 277.944 31.9195 279.979C32.9312 280.871 33.6878 281.696 34.4529 281.951C34.8717 282.091 35.4428 282.16 35.9277 281.947C36.8924 281.523 37.5166 280.349 38.4598 279.64C38.8302 279.362 39.2139 279.421 39.5655 279.646C40.3008 280.116 41.3195 280.95 41.6829 282.239C42.4182 284.848 30.4297 295.576 34.4529 300.729C34.9602 301.379 47.2163 298.952 47.5819 298.707C49.0581 297.718 53.5925 292.214 54.8645 294.721C57.2625 299.447 58.9905 304.233 61.1754 304.832C61.6854 304.972 62.3091 305.079 62.6004 304.78C63.1505 304.215 63.157 302.119 64.997 301.677C65.3674 301.588 67.905 312.42 68.3841 313.205C71.2064 317.834 68.0181 313.948 71.6313 314.533C72.4606 314.667 73.7851 314.065 75.0894 313.443C77.2594 312.407 79.7336 312.153 81.0299 311.09C82.4121 309.955 83.196 308.15 84.7161 306.804L130 183L18.0054 232.379C18.5569 238.735 0.644531 248.767 1.00528 252.681C1.41853 257.164 19.1301 256.501 22.9811 260.674C23.621 261.368 22.7965 260.472 23.8988 260.472C24.4538 260.472 24.3591 259.297 24.7309 258.923C25.1027 258.548 60.7554 258.569 61.1752 258.923ZM61.1752 258.923C60.9526 256.88 62.9679 260.433 61.1752 258.923Z" stroke="black" stroke-linecap="round"/>
<path d="M482.036 18.0847C482.022 17.7614 482.094 17.4186 482.405 17.0679M482.036 18.0847C482.024 18.1049 482.012 18.124 482 18.142M482.036 18.0847C482.452 17.4076 483.251 15.4989 484.759 13.6737C485.412 12.8841 486.709 12.6802 488.803 11.7027C493.523 9.49899 496.156 3.82413 496.963 3.41999C497.658 3.07208 498.183 4.2645 498.517 4.75725C499.62 6.38608 504.373 2.9326 506.671 2.1673C507.908 1.7554 508.832 1.04753 509.708 1.00055C510.101 0.979468 510.183 1.57385 510.252 1.97933C510.858 5.55043 525.428 3.54754 524.89 4.39609C524.63 4.80495 524.352 5.15602 524.414 5.51585C525.144 9.70282 537.699 11.6034 537.363 12.4519C537.199 12.865 536.894 13.2119 536.956 13.5717L484.361 94.5034C484.294 77.9379 484.16 77.5834 484.092 74.8753C483.895 67.1171 483.889 61.469 483.687 60.3103C483.394 58.6306 483.485 57.2612 483.283 52.7808C483.096 48.6565 483.214 40.7682 483.147 36.5282C483.075 31.932 482.809 27.9353 482.742 22.2532C482.542 19.8499 482.271 19.1302 482.069 18.3716C482.053 18.278 482.041 18.1822 482.036 18.0847Z" fill="#7598E2" stroke="black" stroke-linecap="round"/>
<path d="M477.601 49.1967C477.6 47.2087 477.59 45.3387 477.503 44.1125C477.215 42.1851 477.025 40.8018 476.205 37.8213C475.486 36.3695 473.273 32.3641 470.729 33.2603C469.143 33.819 462.341 35.865 461.082 33.7733C460.892 33.4576 460.811 32.9584 461.136 32.3495C462.43 29.9309 463.186 28.8641 463.726 27.2994C463.87 26.8819 463.98 26.3316 461.515 26.265C448.682 25.9182 444.843 25.8429 444.997 24.5671C445.144 23.351 447.821 20.9933 446.243 20.1722C445.715 19.897 444.559 19.5663 442.587 19.3778C440.045 19.1348 432.978 20.327 430.06 18.4743C429.673 18.2292 429.21 17.9127 429.054 17.5739C428.527 16.4305 432.078 9.3191 427.323 8.12575C426.507 7.92117 425.505 7.97256 424.535 8.23376C422.079 8.89527 418.498 10.1007 415.313 11.074C412.48 11.9401 409.665 13.5002 407.732 12.6608C407.015 12.3493 407.11 11.4957 406.28 11.4853C403.638 11.452 400.043 11.4677 394 14.0005L412.031 119.843L478.704 94.152C478.656 74.2712 478.567 73.6304 478.515 73.2497L478.513 73.2359C478.269 71.4621 477.546 69.1318 477.408 65.334C477.313 62.7264 477.313 57.9971 477.264 55.4559C477.215 52.9147 477.037 52.5725 477.072 52.0476C477.161 50.7462 477.401 49.8279 477.601 49.1967ZM477.601 49.1967C477.601 49.4445 477.601 49.6942 477.601 49.9446M477.601 49.1967C477.735 48.7717 477.851 48.477 477.889 48.2831" stroke="black" stroke-linecap="round"/>
<path d="M273.815 57.7896C273.858 58.193 273.917 58.6136 274.005 59.0381M273.815 57.7896C273.727 58.9143 273.619 60.3076 273.499 61.6186C273.194 64.9531 273.175 67.2189 272.946 70.178C272.819 71.8106 272.899 74.7048 272.808 76.4732C272.716 78.2416 272.534 78.8009 272.44 105.797L223.638 127.314L179 54.3728C180.229 56.072 183.054 54.2415 184.895 53.3446C186.744 52.4438 188.853 50.5748 190.609 49.2033C192.76 47.5222 193.835 46.3318 195.536 44.8275C198.867 41.8824 201.47 39.0945 203.923 36.5408C204.68 35.7529 205.171 35.0295 205.768 34.5125C206.072 34.2495 206.456 34.0888 206.644 34.6453C206.832 35.2018 206.832 36.5069 207.243 37.1792C208.881 39.8623 213.091 36.5351 216.402 35.1269C218.73 34.137 220.831 32.9588 223.638 31.4546C225.846 30.2712 228.294 28.7215 230.412 27.4051C231.745 26.5762 232.905 26.1763 233.732 26.0351C234.189 25.9569 234.741 25.987 235.205 26.3599C237.297 28.0396 238.334 30.4955 239.128 32.1961C239.445 32.8758 239.175 33.7046 239.403 34.3628C240.158 36.5433 243.774 37.1849 245.205 38.6933C245.548 39.0549 245.803 39.4448 245.853 39.8233C245.953 40.58 245.532 41.3318 245.669 42.0832C245.992 43.8556 247.738 45.0945 248.616 46.5564C249.452 47.9484 251.791 47.6425 253.726 48.2075C255.534 48.7353 257.778 49.151 259.348 49.4321C261.022 49.7317 263.03 50.1849 265.193 50.514C269.815 51.2171 271.141 52.6313 272.571 53.1977C272.919 53.3355 273.17 53.6652 273.356 53.9957C273.543 54.3262 273.634 54.6991 273.681 55.5437C273.713 56.1217 273.724 56.9153 273.815 57.7896ZM273.815 57.7896C273.896 56.7635 273.961 55.9609 274.005 55.6482" stroke="black" stroke-linecap="round"/>

//north
<g id="Northland">
    <path id="bravak" d="M67.8832 201.061L35.9984 132.453C35.4414 132.448 34.7069 132.286 34.2956 131.837C32.8706 130.279 31.9159 125.838 31.1623 127.286C28.9011 131.629 28.2983 135.499 26.4658 136.268C26.1423 136.403 25.8687 136.124 25.6378 135.792C25.407 135.46 25.2007 135.097 25.0394 134.66C24.3953 132.917 23.7464 130.709 21.5343 129.816C21.0726 129.629 20.632 129.56 20.4313 129.869C19.9724 130.576 19.7591 131.544 16.8336 139.953C14.0624 147.917 8.77151 162.926 5.65616 172.255C2.5408 181.584 1.45811 185.101 1.17247 187.714C0.716354 191.887 1.26248 195.037 1.68663 194.411C2.00729 193.937 2.62907 187.501 3.16 189.378C3.57465 190.844 3.62962 192.747 4.08191 194.892C4.68037 197.731 5.99599 201.154 7.96158 211.004C8.7494 214.952 9.57037 220.172 10.1219 226.528L67.8832 201.061Z" fill="#5A7DF2" stroke="black" stroke-linecap="round"/>
    <path id="norven" d="M143.719 167.479L104.881 95C103.316 97.3051 101.733 99.3454 101.985 101.4C102.222 103.328 103.955 104.665 103.551 107.42C103.504 107.74 103.354 107.256 103.273 107.373C102.487 108.509 100.556 112.847 91.6205 115.011C81.5668 117.446 79.4821 116.512 77.8847 117.024C77.1494 117.26 76.5344 118.108 75.6733 118.202L75.6187 118.208C73.9553 118.391 71.4971 118.66 67.7411 116.074C65.075 114.237 64.225 112.443 62.5885 110.379C62.2167 109.91 61.7317 109.61 61.3446 109.774C60.5637 110.105 58.6911 111.773 55.8395 115.839C49.2245 125.271 47.9813 127.912 46 127.897L77.8847 196.505L143.719 167.479Z" fill="#6CA6E8" stroke="black" stroke-linecap="round"/>
    <path id="talyra" d="M223.638 127.314L272.44 105.797C272.534 78.8009 272.716 78.2416 272.808 76.4732C272.899 74.7048 272.819 71.8106 272.946 70.178C273.175 67.2189 273.194 64.9531 273.499 61.6186C273.619 60.3076 273.727 58.9143 273.815 57.7896C273.724 56.9153 273.713 56.1217 273.681 55.5437C273.634 54.6991 273.543 54.3262 273.356 53.9957C273.17 53.6652 272.919 53.3355 272.571 53.1977C271.141 52.6313 269.815 51.2171 265.193 50.514C263.03 50.1849 261.022 49.7317 259.348 49.4321C257.778 49.151 255.534 48.7353 253.726 48.2075C251.791 47.6425 249.452 47.9484 248.616 46.5564C247.738 45.0945 245.992 43.8556 245.669 42.0832C245.532 41.3318 245.953 40.58 245.853 39.8233C245.803 39.4448 245.548 39.0549 245.205 38.6933C243.774 37.1849 240.158 36.5433 239.403 34.3628C239.175 33.7046 239.445 32.8758 239.128 32.1961C238.334 30.4955 237.297 28.0396 235.205 26.3599C234.741 25.987 234.189 25.9569 233.732 26.0351C232.905 26.1763 231.745 26.5762 230.412 27.4051C228.294 28.7215 225.846 30.2712 223.638 31.4546C220.831 32.9588 218.73 34.137 216.402 35.1269C213.091 36.5351 208.881 39.8623 207.243 37.1792C206.832 36.5069 206.832 35.2018 206.644 34.6453C206.456 34.0888 206.072 34.2495 205.768 34.5125C205.171 35.0295 204.68 35.7529 203.923 36.5408C201.47 39.0945 198.867 41.8824 195.536 44.8275C193.835 46.3318 192.76 47.5222 190.609 49.2033C188.853 50.5748 186.744 52.4438 184.895 53.3446C183.054 54.2415 180.229 56.072 179 54.3728L223.638 127.314Z" fill="#5F77C5" />
    <path id="velmor" d="M149.838 163.126L218.021 133.064L173.383 60.1227C172.185 58.4659 173.413 53.819 171.219 54.0055C170.62 54.0563 169.739 54.9439 162.296 62.7075C159.889 65.2174 157.618 67.8367 156.186 69.4208C153.388 72.5169 152.204 74.2564 149.838 75.6214C148.041 76.6581 145.341 79.9293 142.375 78.4858C141.504 78.0621 141.668 76.1549 141.042 74.1525C140.854 73.5508 140.489 73.8304 140.119 74.1143C139.384 74.6779 138.65 75.1675 137.908 75.4773C136.431 76.0932 134.83 77.082 130.484 81.5141C128.415 83.6243 125.358 87.2095 122.191 85.7345C120.675 85.0282 119.277 84.2215 118.697 83.1426C118.193 82.2034 118.322 80.9444 118.006 81.0339C117.817 81.0875 117.323 81.522 116.757 82.2669C114.505 85.2288 113.576 86.851 111 90.6469L149.838 163.126Z" fill="#7E87F9" stroke="black" stroke-linecap="round"/>

    <path id="cryndor" d="M320.936 34.8648C322.792 37.164 323.077 36.8899 323.367 36.3717L336.617 145.489L277.012 168.455C276.99 145.734 276.998 115.525 277.035 98.0028C277.083 75.6587 277.178 75.2475 277.227 73.5277C277.276 71.808 277.276 68.7922 277.419 66.519C277.561 64.2457 277.846 62.8064 277.993 60.5228C278.561 51.7068 279.005 50.5979 279.578 49.3164C279.724 48.9899 279.961 48.7286 280.297 48.6559C281.078 48.4867 283.499 48.8616 286.76 48.4161C291.366 47.7869 290.333 44.4376 291.102 41.2931C291.59 39.2989 292.061 37.2429 292.639 36.0207C293.066 35.1174 293.983 37.6438 294.557 37.7497C295.442 37.9127 295.901 36.4039 298.618 33.5875C300.913 31.2086 304.853 26.7958 307.1 24.4675C309.347 22.1392 309.727 22.0021 310.113 22C310.499 21.9979 310.88 22.135 311.266 22.3427C311.652 22.5504 312.032 22.8246 313.892 25.3305C315.751 27.8363 319.079 32.5656 320.936 34.8648Z" fill="#4A66B0"  stroke="black" stroke-linecap="round"/>
    <path id="eldmere" d="M388.892 14L406.923 119.842L340.25 145.533L327 36.4158C328.346 34.0068 329.303 32.024 332.226 27.9438C333.897 25.6108 337.543 23.8573 340.25 22.5655C342.025 21.7182 343.613 21.3525 344.381 21.2819C344.987 21.2261 344.866 22.2477 345.009 22.8697C345.076 23.1634 345.437 23.3547 346.059 23.1179C350.376 21.4753 351.49 18.5153 351.969 18.237C353.777 17.1883 352.547 22.7981 353.027 24.0121C353.308 24.7237 354.368 25.3631 355.517 25.9167C356.057 26.1764 356.667 26.196 357.198 26.1628C359.361 26.0276 361.466 24.1273 367.172 19.6722C370.042 17.4313 372.708 15.8859 374.39 15.3968C376.458 14.7958 375.211 18.0937 375.546 18.6815C375.855 19.2253 381.215 17.2172 388.892 14Z" fill="#4E9DF9"  stroke="black" stroke-linecap="round"/>
    <path id="frostal" d="M470.729 33.2603C473.273 32.3641 475.486 36.3695 476.205 37.8213C477.025 40.8018 477.215 42.1851 477.503 44.1125C477.59 45.3387 477.6 47.2087 477.601 49.1967C477.401 49.8279 477.161 50.7462 477.072 52.0476C477.037 52.5725 477.215 52.9147 477.264 55.4559C477.313 57.9971 477.313 62.7264 477.408 65.334C477.546 69.1318 478.269 71.4621 478.513 73.2359L478.515 73.2497C478.567 73.6304 478.656 74.2712 478.704 94.152L412.031 119.843L394 14.0005C400.043 11.4677 403.638 11.452 406.28 11.4853C407.11 11.4957 407.015 12.3493 407.732 12.6608C409.665 13.5002 412.48 11.9401 415.313 11.074C418.498 10.1007 422.079 8.89527 424.535 8.23376C425.505 7.97256 426.507 7.92117 427.323 8.12575C432.078 9.3191 428.527 16.4305 429.054 17.5739C429.21 17.9127 429.673 18.2292 430.06 18.4743C432.978 20.327 440.045 19.1348 442.587 19.3778C444.559 19.5663 445.715 19.897 446.243 20.1722C447.821 20.9933 445.144 23.351 444.997 24.5671C444.843 25.8429 448.682 25.9182 461.515 26.265C463.98 26.3316 463.87 26.8819 463.726 27.2994C463.186 28.8641 462.43 29.9309 461.136 32.3495C460.811 32.9584 460.892 33.4576 461.082 33.7733C462.341 35.865 469.143 33.819 470.729 33.2603Z" fill="#7598E2" />

    <path id="harnvik" d="M482.036 18.0847C482.452 17.4076 483.251 15.4989 484.759 13.6737C485.412 12.8841 486.709 12.6802 488.803 11.7027C493.523 9.49899 496.156 3.82413 496.963 3.41999C497.658 3.07208 498.183 4.2645 498.517 4.75725C499.62 6.38608 504.373 2.9326 506.671 2.1673C507.908 1.7554 508.832 1.04753 509.708 1.00055C510.101 0.979468 510.183 1.57385 510.252 1.97933C510.858 5.55043 525.428 3.54754 524.89 4.39609C524.63 4.80495 524.352 5.15602 524.414 5.51585C525.144 9.70282 537.699 11.6034 537.363 12.4519C537.199 12.865 536.894 13.2119 536.956 13.5717L484.361 94.5034C484.294 77.9379 484.16 77.5834 484.092 74.8753C483.895 67.1171 483.889 61.469 483.687 60.3103C483.394 58.6306 483.485 57.2612 483.283 52.7808C483.096 48.6565 483.214 40.7682 483.147 36.5282C483.075 31.932 482.809 27.9353 482.742 22.2532C482.542 19.8499 482.271 19.1302 482.069 18.3716C482.053 18.278 482.041 18.1822 482.036 18.0847Z" fill="#8AA3FF"/>
    <path id="morrund" d="M610.479 35.8252L491 94.555L543.595 13.6233C543.908 15.4152 548.639 16.0401 552.415 18.0514C553.207 18.473 553.235 18.9026 553.103 19.351C552.803 20.3736 551.891 21.2334 551.62 21.992C551.48 22.3852 551.883 22.8392 552.555 23.2004C557.116 25.6533 564.288 25.9756 566.042 27.1853C566.942 27.806 568.738 27.5921 570.286 27.5035C573.175 27.3381 575.074 25.6265 576.361 24.198C579.81 20.368 582.636 16.228 582.838 16.3999C583.328 16.8162 582.907 18.344 583.307 18.6314C586.146 20.6681 588.83 15.1539 592.198 13.5011C595.34 11.9593 597.73 10.9488 599.891 10.1405C600.939 9.74837 601.918 9.24632 602.591 8.9308C604.316 8.12324 603.945 11.4751 604.612 12.0148C607.331 14.2131 611.211 10.1432 614.452 9.06774C616.066 8.53203 617.425 8.16952 618.835 8.03525C619.705 7.95242 620.913 7.98959 621.532 8.43267C622.957 9.45283 622.017 11.0293 621.682 11.7436C620.918 13.368 616.786 16.1153 614.266 19.0785C613.138 20.4038 615.929 24.163 618.427 28.3695C619.266 29.7818 618.388 29.9176 617.711 29.9189C615.112 29.9241 612.991 29.2946 610.764 28.9804C608.32 28.6356 605.579 29.735 602.739 30.9434C602.121 31.2062 602.326 31.8779 602.861 32.5062C605.208 35.2688 608.25 35.5567 610.479 35.8252Z" fill="#6073D6" stroke="black" stroke-linecap="round"/>
    <path id="thavros" d="M491 98.9731L611.885 39.473C613.744 39.7693 617.569 43.9384 622.108 46.1572C623.539 46.8571 625.318 46.8791 626.797 46.8271C628.067 46.7824 628.976 46.1241 629.72 45.9038C631.674 45.3259 631.301 49.2553 633.424 50.1875C634.015 50.4468 634.893 50.3283 635.023 50.8552C635.789 53.9641 633.109 56.6911 633.897 59.5122C634.589 61.9922 636.53 63.6264 638.627 65.4627C639.267 66.0229 640.066 66.6056 640.53 67.1032C640.994 67.6009 641.116 67.9848 640.775 68.3135C639.022 70.0065 635.698 69.7518 633.711 70.8451C632.707 71.3979 633.027 73.0915 633.369 74.902L633.379 74.9577L491 98.9731Z" fill="#6CA6E8" stroke="black" stroke-linecap="round"/>
</g>



//midlands
<g id="Midlands">
    <path id="meridia" d="M84.7161 306.804L130 183L18.0054 232.379C18.5569 238.735 0.644531 248.767 1.00528 252.681C1.41853 257.164 19.1301 256.501 22.9811 260.674C23.621 261.368 22.7965 260.472 23.8988 260.472C24.4538 260.472 24.3591 259.297 24.7309 258.923C25.1027 258.548 60.7554 258.569 61.1752 258.923C62.9679 260.433 60.9526 256.88 61.1752 258.923C61.6797 263.551 29.6094 277.944 31.9195 279.979C32.9312 280.871 33.6878 281.696 34.4529 281.951C34.8717 282.091 35.4428 282.16 35.9277 281.947C36.8924 281.523 37.5166 280.349 38.4598 279.64C38.8302 279.362 39.2139 279.421 39.5655 279.646C40.3008 280.116 41.3195 280.95 41.6829 282.239C42.4182 284.848 30.4297 295.576 34.4529 300.729C34.9602 301.379 47.2163 298.952 47.5819 298.707C49.0581 297.718 53.5925 292.214 54.8645 294.721C57.2625 299.447 58.9905 304.233 61.1754 304.832C61.6854 304.972 62.3091 305.079 62.6004 304.78C63.1505 304.215 63.157 302.119 64.997 301.677C65.3674 301.588 67.905 312.42 68.3841 313.205C71.2064 317.834 68.0181 313.948 71.6313 314.533C72.4606 314.667 73.7851 314.065 75.0894 313.443C77.2594 312.407 79.7336 312.153 81.0299 311.09C82.4121 309.955 83.196 308.15 84.7161 306.804Z" fill="#66B96A"/>
    <path id="orthis" d="M93.1968 304.484L265.73 232.468L137.284 181L91.9999 304.804C92.3717 304.475 92.924 304.163 93.1968 304.484Z" fill="#6FBF80" stroke="black" stroke-linecap="round"/>
    <path id="sarlane" d="M268.586 120L140 176.694L268.447 228.162C268.492 200.411 268.492 146.996 268.586 120Z" fill="#5CA875" stroke="black" stroke-linecap="round"/>
    <path id="vondar" d="M279 184C279.006 190.253 279.014 195.938 279.025 200.636C279.074 222.406 279.169 222.954 279.216 226.724C279.264 230.494 279.179 237.28 279.313 240.813C279.457 244.621 279.616 246.14 280.033 248.12C280.422 249.967 281.164 253.833 281.233 257.247L376.593 223.765L279 184Z" fill="#78C485"/>
    <path id="thyrel" d="M376.593 217.113L279 177.348L471.951 103L376.593 217.113Z" fill="#78C485" stroke="black" stroke-linecap="round"/>
    <path id="kelvar" d="M472.36 189.63L377 223.113L377 223.113L472.358 109C472.407 129.123 472.407 168.945 472.36 189.63Z" fill="#61B177" stroke="black" stroke-linecap="round"/>
    <path id="yarven" d="M550.306 92L479 186.847C479.067 186.214 479.2 185.771 479.269 169.637C479.338 153.502 479.338 121.69 479.271 105.124L550.306 92Z" fill="#73B97E" stroke="black" stroke-linecap="round"/>
    <path id="dravon" d="M632.156 87.6458C632.831 88.0129 633.238 88.2728 633.712 88.2768C634.794 88.2861 635.67 87.3867 636.477 86.6724C637.284 85.9581 643.838 88.0741 649.956 89.3966C650.735 89.5652 651.307 89.5295 651.782 89.841L482 189.971L553.306 95.1243L624.342 82C625.078 85.1215 629.193 86.0333 632.156 87.6458Z" fill="#7ECA7B" stroke="black" stroke-linecap="round"/>
    <path id="erlun" d="M663.983 108.19C662.508 107.787 661.215 107.545 660.068 106.479C655.48 102.215 654.13 98.4491 651.918 97L482.136 197.13C482.069 197.762 482.106 198.562 482 199.141L653.609 169.815C653.203 169.28 651.735 168.458 649.351 167.307L649.327 167.296C645.61 165.501 640.389 162.981 641.207 160.906C641.611 159.879 642.352 159.01 642.485 158.267C642.55 157.908 642.417 157.553 642.075 157.285C641.733 157.016 641.192 156.85 640.175 156.568C635.664 155.314 632.165 154.717 630.748 153.121C629.595 151.823 619.715 149.797 617.332 145.735C617.07 145.287 617.276 144.879 617.883 144.618C619.23 144.038 621.109 143.516 623.215 143.278C626.788 142.875 633.831 144.052 635.543 142.021C635.81 141.705 635.81 141.261 636.016 140.903C636.222 140.544 636.605 140.115 637.649 140.146C642.429 140.287 644.829 142.368 646.535 141.666C646.871 141.527 647.029 141.178 647.209 140.767C648.497 137.832 649.173 128.581 652.47 129.586C653.211 129.811 654.409 130.636 654.963 130.252C655.23 130.067 655.097 129.524 655.436 128.036C656.994 121.205 658.278 118.869 659.82 117.273C661.031 116.017 661.443 114.4 663.327 112.93C665.223 111.452 672.339 107.606 669.657 108.058C669.115 108.149 666.588 108.901 663.983 108.19Z" fill="#6FBF80"/>
</g>



//south
<g id="Southland">
    <path id="zahara" d="M113.066 383.056L140.437 291L69.345 320.674C69.9877 321.428 71.0158 322.535 71.2317 323.879C71.5495 325.858 71.2701 327.791 70.2572 329.386C69.1501 331.129 68.219 332.63 68.003 334.14C67.7735 335.745 67.2668 338.144 68.7465 338.943C70.8308 340.067 75.5117 339.802 75.7913 342.286C75.8812 343.084 32.8345 358.218 31.0139 367.835C30.2385 371.931 61.8361 370.324 62.3161 372.7C63.7867 379.978 72.778 378.044 74.9676 379.807C75.4306 380.18 75.8867 380.18 76.2087 379.94C76.5308 379.7 76.7132 379.234 76.9924 379.001C77.2716 378.768 77.6507 378.722 78.0069 378.864C79.671 379.525 76.9719 391.716 78.9374 392.658C83.2607 394.73 90.9673 388.819 91.9183 386.861C92.2845 386.107 92.0627 384.671 92.7475 383.282C92.9341 382.903 99.8982 416.986 100.536 417.371C102.331 418.456 102.465 398.72 104.437 400.871C105.775 402.33 103.596 391.763 105.695 392.658C106.144 392.849 106.385 392.703 106.662 392.464C106.933 392.23 107.125 391.873 107.697 390.813L107.729 390.754C110.438 385.728 110.444 383.17 112.053 382.722C112.378 382.632 112.763 382.792 113.066 383.056Z" fill="#E69A4C" stroke="black" stroke-linecap="round"/>
    <path id="teshar" d="M186.976 406.874C185.817 405.728 184.208 405.547 182.874 405.312C180.964 404.974 179.54 407.093 176.306 411.908L176.197 412.07L176.11 412.199C174.568 414.495 173.681 415.815 172.645 416.371C169.007 418.322 164.858 411.016 162.923 409.412C160.989 407.809 159.141 406.864 158.406 406.817C157.659 406.77 155.653 409.378 153.477 412.038C153.154 412.432 152.695 412.418 152.142 412.093C149.399 410.481 148.001 406.7 145.371 403.389C143.909 401.549 141.914 400.372 140.164 399.382C137.399 397.818 145.059 392.271 141.371 391.464C140.64 391.304 130.58 395.751 130.164 395.612C126.096 394.259 123.299 387.191 122.33 385.683C121.164 383.867 119.247 383.141 118 382.056L145.371 290L192.22 411.899C191.089 413.212 189.642 409.508 186.976 406.874Z" fill="#E97B3D"  stroke="black" stroke-linecap="round"/>
    <path id="olyndra" d="M247.923 376.854C249.681 377.135 251.939 376.938 253.683 376.286C255.204 375.717 257.203 375.104 258.057 373.646L155 284L155 284L201.849 405.899C202.216 405.474 203.272 404.486 204.893 398.913C206.276 394.158 206.638 386.301 209.314 384.053C209.593 383.819 209.958 383.725 210.376 383.775C210.793 383.824 211.253 384.003 211.9 384.344C214.663 385.802 216.537 390.909 218.253 388.998C219.357 387.768 220.041 384.965 222.405 384.666C223.877 384.48 225.786 384.444 226.775 385.475C227.04 385.752 227.134 386.083 227.167 386.294C227.162 386.124 227.17 385.877 227.232 385.651C227.744 383.807 228.751 381.209 230.555 380.899C232.731 380.525 237.681 382.399 240.183 381.416C240.553 381.271 240.921 380.9 241.242 380.519C242.676 378.819 244.314 377.002 245.757 376.71C246.447 376.57 247.174 376.734 247.923 376.854Z" fill="#F2A85B" />
    <path id="calvor" d="M266.887 283.87C266.657 277.719 267.085 268.207 267.257 266.643L267.259 266.626C267.307 266.2 267.396 265.396 267.441 238L166 280.342L269.057 369.988C269.886 368.573 271.301 367.03 270.757 363.391C270.433 361.228 269.992 359.76 269.789 357.177C269.604 354.821 269.509 352.718 269.098 350.683C268.775 349.081 268.731 342.661 268.823 335.224C268.869 331.533 268.869 324.821 268.916 321.225C268.963 317.629 269.117 317.172 269.147 316.738C269.422 312.685 269.463 305.881 268.821 304.262C268.222 302.753 267.588 301.102 267.485 299.459C267.21 295.07 267.04 287.973 266.887 283.87Z" fill="#E8642B" stroke="black" stroke-linecap="round"/>
    <path id="nashara" d="M271.576 278.5C271.549 275.593 271.145 273.663 271 266.482L366.36 233L380.679 302.435C379.632 300.909 378.415 300.242 377.649 300.033C377.288 299.935 376.882 300.235 376.496 300.307C376.11 300.379 375.73 300.31 375.344 300.103C373.644 299.194 373.039 297.822 371.648 296.817C370.495 295.984 369.196 295.533 368.43 295.36C366.944 295.024 364.788 296.356 362.43 297.363C361.366 297.817 360.458 298.368 359.453 298.68C357.552 299.269 355.471 298.167 353.547 297.232C351.001 295.996 349.323 295.396 346.539 295.358C344.697 295.332 343.653 296.912 342.26 298.295L342.245 298.311C341.905 298.648 341.631 298.921 341.252 299.06C340.868 299.201 340.392 299.201 340.1 299.064C338.87 298.488 337.989 297.062 335.591 295.331C333.56 293.865 331.59 293.418 329.244 292.885L329.012 292.833C328.406 292.695 327.814 292.762 327.472 292.899C325.913 293.526 325.405 295.388 323.585 296.739C323.172 297.045 322.72 297.053 322.477 296.952C320.66 296.192 321.85 293.527 321.134 293.111C320.047 292.481 318.396 293.107 317.391 293.589C312.457 295.953 312.159 303.824 311.001 305.291C310.828 305.509 310.332 305.432 309.994 305.329C307.872 304.685 306.489 302.321 303.471 298.491C301.296 295.73 300.341 294.706 299.622 293.773C299.315 293.374 298.999 293.182 298.661 293.384C297.629 294.005 297.457 295.388 296.743 298.994C296.137 302.054 294.982 307.604 294.252 310.841C292.864 316.994 291.986 320.997 291.695 322.941C291.622 323.429 291.41 323.975 291.122 324.292C290.674 324.784 289.337 324.752 287.925 324.718L287.72 324.714C285.861 324.671 284.404 323.643 283.199 322.847C281.851 321.957 281.327 320.461 280.797 319.352C280.063 317.818 278.636 316.099 277.965 314.922C277.155 313.502 276.907 312.361 276.284 311.079C275.678 309.835 275.277 307.318 274.938 304.403C274.751 302.793 273.266 299.849 272.489 297.166C272.242 296.309 272.2 293.89 272.105 290.365C272.035 287.791 271.624 283.518 271.576 278.5Z" fill="#F08949" stroke="black" stroke-linecap="round"/>
    <path id="velthar" d="M388.32 299.917L374 230.482L469.36 197C469.312 217.652 469.217 218.027 469.121 218.409L469.12 218.411C468.734 219.941 468.479 221.398 468.246 222.726L468.207 222.946C467.976 224.264 467.777 225.368 467.392 226.65C467.051 227.787 466.912 229.036 466.575 237.619C466.279 245.161 466.526 259.9 466.621 267.8C466.724 276.319 467.102 277.295 467.197 278.054C467.452 280.083 468.059 281.999 468.302 283.351C468.667 285.377 468.733 288.301 468.641 293.651C468.622 294.752 468.07 294.881 467.684 295.02C466.182 295.561 464.613 295.645 463.075 295.852C461.536 296.058 460.004 296.335 457.987 297.13C456.026 297.904 454.956 299.382 452.799 302.362L452.659 302.556C451.889 303.619 451.26 304.227 450.638 304.608C449.14 305.525 445.795 304.987 443.821 305.612C442.243 306.113 440.989 307.064 439.451 307.896C437.495 308.954 436.086 310.458 435.56 310.908C435.293 311.136 434.749 311.152 434.362 311.084C433.611 310.953 433.015 310.462 431.821 310.254C427.466 309.497 424.28 311.496 421.215 312.704C416.387 314.606 415.349 315.788 413.668 316.515C412.43 317.051 410.837 317.453 409.159 317.385C406.877 317.291 405.284 316.018 403.989 314.983L403.966 314.965C402.622 313.891 401.612 312.959 400.652 311.85C400.423 311.585 400.362 311.297 400.123 311.293C398.328 311.262 398.057 313.158 397.579 313.573C397.357 313.767 396.911 313.715 396.525 313.578C394.203 312.753 393.546 309.777 392.585 308.285C391.612 306.775 391.149 304.04 388.32 299.917Z" fill="#F2B86E" stroke="black" stroke-linecap="round"/>
    <path id="kavren" d="M477.454 216.764C477.505 213.51 478.326 211.197 478.668 209.445C479.028 207.599 479.411 205.467 479.746 203.629L559.5 190L559.82 277.755L537.812 282.992C537.144 281.812 535.809 281.369 534.854 281.141C533.9 280.913 533.366 280.913 533.024 281.09C532.29 281.47 532.01 282.341 531.07 282.834C528.636 284.109 525.274 279.667 523.449 278.233C522.985 277.868 522.442 277.518 522.1 277.513C521.391 277.502 521.487 279.734 519.351 282.016C515.913 285.689 508.273 283.147 507.869 284.083C507.624 284.648 507.731 285.461 507.464 285.872C507.197 286.283 506.663 286.283 506.121 286.15C503.803 285.582 502.48 283.609 499.988 282.482C498.572 281.842 497.083 281.807 496.073 282.074C494.038 282.613 492.632 283.149 491.556 283.151C490.998 283.152 490.48 282.798 490.205 282.484C488.972 281.076 488.182 278.598 487.304 276.889C487.019 276.335 485.083 277.948 483.06 278.942C482.61 279.162 481.984 279.033 481.575 278.856C479.601 278 479.548 275.553 479.008 273.446C478.552 271.666 477.792 268.141 477.39 265.612C477.331 265.243 477.121 264.898 477.052 258.158C476.983 251.418 476.983 238.303 477.05 231.369C477.12 224.08 477.388 221.058 477.454 216.764Z" fill="#D87536" stroke="black" stroke-linecap="round"/>
    <path id="ulmar" d="M634.317 262.272L566.32 278.452L566 190.697L657.855 175C658.883 176.353 653.82 177.147 652.4 178.757C650.127 181.333 650.575 185.826 650.239 187.795C649.706 190.923 652.857 193.613 655.689 196.476C657.425 198.23 660.139 200.401 661.163 203.058C662.007 205.25 656.514 204.362 655.972 204.984C653.622 207.678 659.063 210.256 660.147 212.724C660.36 213.209 660.285 213.575 660.085 213.891C659.672 214.541 656.935 215.544 653.565 216.929C649.969 218.408 652.056 223.06 652.26 224.676C652.306 225.038 652.46 225.391 652.195 225.706C650.973 227.161 646.287 227.27 643.77 228.704C641.959 229.736 641.148 231.744 639.32 233.314C638.455 234.056 638.438 235.06 638.171 235.643C637.937 236.153 636.285 235.334 634.942 235.377C632.929 235.442 631.297 236.671 630.152 237.564C629.155 238.341 629.132 239.268 628.798 239.761C628.387 240.369 626.175 239.719 624.558 239.852C623.853 239.91 623.476 240.251 623.337 240.565C622.74 241.907 624.941 243.382 626.765 245.039C627.222 245.453 627.773 245.799 628.048 246.159C628.323 246.518 628.323 246.873 628.123 247.233C627.189 248.91 625.362 250.895 625.353 253.895C625.343 257.936 632.361 261.014 634.317 262.272Z" fill="#EA8C44" stroke="black" stroke-linecap="round"/>
    <path id="sundor" d="M538.164 293.437C538.319 292.282 538.233 290.417 537.565 289.237L559.573 284L559.888 370.503C559.291 369.772 558.874 369.424 558.401 369.33C557.928 369.236 557.394 369.413 556.985 369.726C555.318 371.002 556.168 372.455 556.303 372.949C556.388 373.26 555.5 371.926 554.09 371.389C553.294 371.086 552.013 371.207 551.394 371.384C549.53 371.917 550.37 374.064 549.767 375.365C549.626 375.669 548.897 375.68 548.288 375.549C543.856 374.591 539.183 372.552 537.972 372.282C535.013 371.623 536.08 377.2 535.004 377.781C532.962 378.885 529.21 378.543 526.912 378.814C524.536 379.094 522.6 380.777 521.647 382.211C521.421 382.55 521.378 382.925 520.842 383.285C519.56 384.145 517.207 384.364 515.052 384.276C511.672 384.137 508.981 381.953 507.422 380.477C506.369 379.482 506.271 377.839 506.337 376.319C506.45 373.76 511.109 370.149 513.076 368.481C514.619 367.172 515.034 365.75 514.904 365.213C514.828 364.897 513.44 365.03 512.823 364.72C511.555 364.083 511.935 362.53 511.601 361.502C510.928 359.428 506.012 359.037 504.385 357.743C501.473 355.425 507.881 353.135 508.631 351.654C509.495 349.949 504.656 349.995 504.05 349.327C502.415 347.525 505.453 345.256 506.068 343.778C506.88 341.826 499.959 340.422 497.376 339.256C496.432 338.829 495.889 338.003 495.618 337.155C495.491 336.758 495.881 336.395 495.752 335.99C494.554 332.253 485.516 328.613 484.223 326.905C482.434 324.541 491.965 322.337 492.982 321.757C494.201 321.062 489.824 320.28 488.68 319.432C487.768 318.756 487.66 317.775 487.86 316.792C488.207 315.091 493.826 313.221 502.735 309.903C505.992 308.69 508.557 308.731 509.568 308.639C509.932 308.607 509.912 309.08 510.246 309.307C510.58 309.534 511.247 309.622 511.858 309.579C512.469 309.536 513.003 309.359 513.412 309.046C515.193 307.682 515.034 305.605 515.439 303.946C515.526 303.587 516.24 303.452 516.848 303.36C519.428 302.973 521.904 304.429 523.931 305.103C526.643 306.005 525.148 300.409 525.82 299.605C526.149 299.211 526.759 298.978 527.434 298.885C530.954 298.403 534.179 300.315 535.593 300.049C538.875 299.432 537.828 295.938 538.164 293.437Z" fill="#E07B3E" stroke="black" stroke-linecap="round"/>
    <path id="pharel" d="M567.315 374.684L567 288.181L634.997 272C635.447 272.289 635.873 272.536 635.813 272.806C635.421 274.546 633.187 276.204 633.25 278.574C633.332 281.671 640.566 287.455 643.562 290.749C644.002 291.232 644.369 291.687 644.442 292.093C644.739 293.742 640.081 296.064 638.311 298.002C638.064 298.271 638.705 298.583 638.511 298.764C636.994 300.18 633.6 299.84 630.767 300.421C627.898 301.01 620.823 301.268 615.798 302.388C615.11 302.541 615.248 303.057 615.715 303.549C618.058 306.02 622.101 308.239 625.409 310.789C626.517 311.643 625.645 312.009 624.901 312.279C624.157 312.549 623.356 312.815 622.809 313.218C617.826 316.893 629.942 325.967 630.956 327.584C631.389 328.275 631.564 329.018 631.5 329.644C631.469 329.944 630.767 330.092 630.559 330.361C628.16 333.453 638.034 338.502 639.385 340.071C640.402 341.251 637.095 342.35 636.695 343.736C635.819 346.766 628.211 347.101 625.639 347.369C625.156 347.42 625.095 347.901 624.626 348.172C623.541 348.799 620.928 348.803 618.501 349.335C613.798 350.365 614.985 353.634 613.907 354.258C610.153 356.432 617.53 363.287 618.62 365.312C618.803 365.652 617.424 365.806 616.876 366.075C611.833 368.545 624.812 377.611 626.034 379.9C626.287 380.375 626.171 380.838 625.838 381.2C625.504 381.561 624.836 381.827 624.426 382.141C622.18 383.859 626.835 388.175 628.253 390.187C628.768 390.918 628.202 391.225 627.662 391.451C627.122 391.676 626.455 391.853 625.977 392.299C623.764 394.365 624.553 396.15 624.42 396.864C624.278 397.621 621.875 397.944 619.043 399.76C613.098 403.573 617.813 409.485 617.275 410.734C615.52 414.805 615.66 419.592 614.576 423.483C614.315 424.42 614.439 425.14 614.172 425.461C613.905 425.782 613.37 425.693 612.895 426.091C610.217 428.33 610.004 430.43 606.964 432.53C606.22 433.044 605.95 433.647 605.41 433.965C603.536 435.07 598.959 434.195 596.105 434.775C594.935 435.013 593.809 434.198 593.135 433.573C591.61 432.159 592.324 429.732 591.851 427.045C591.539 425.275 591.649 423.905 591.446 421.285C590.95 414.864 590.843 410.387 589.834 410.252C589.364 410.188 588.958 410.559 588.752 410.209C586.872 407.016 586.66 403.771 584.441 400.24C583.301 398.426 582.614 396.966 581.738 395.309L581.612 395.07C580.578 393.113 579.343 390.774 578.504 390.386C572.132 387.44 574.66 383.722 573.513 382.017C572.026 379.806 569.943 377.901 567.315 374.684Z" fill="#F29A55" stroke="black" stroke-linecap="round"/>
</g>
</svg>
