<svg xmlns="http://www.w3.org/2000/svg" version="1.1" viewBox="0 0 529.0 626.0" width="529.0" height="626.0"><path d="M 0 0 L 68.46655264571952 0 L 68.46655264571952 208.66666666666666 L 0 208.66666666666666 Z" fill="#5A7DF2" stroke="#000" stroke-width="1" id="bravak"><title>bravak (Laurazia)</title></path><path d="M 68.46655264571952 0 L 150.02090541004821 0 L 150.02090541004821 208.66666666666666 L 68.46655264571952 208.66666666666666 Z" fill="#4E9DF9" stroke="#000" stroke-width="1" id="norven"><title>norven (Laurazia)</title></path><path d="M 150.02090541004821 0 L 206.592968723213 0 L 206.592968723213 208.66666666666666 L 150.02090541004821 208.66666666666666 Z" fill="#6CA6E8" stroke="#000" stroke-width="1" id="talyra"><title>talyra (Laurazia)</title></path><path d="M 206.592968723213 0 L 275.4575448512393 0 L 275.4575448512393 208.66666666666666 L 206.592968723213 208.66666666666666 Z" fill="#7E87F9" stroke="#000" stroke-width="1" id="velmor"><title>velmor (Laurazia)</title></path><path d="M 275.4575448512393 0 L 318.68284839525637 0 L 318.68284839525637 208.66666666666666 L 275.4575448512393 208.66666666666666 Z" fill="#4A66B0" stroke="#000" stroke-width="1" id="cryndor"><title>cryndor (Laurazia)</title></path><path d="M 318.68284839525637 0 L 363.5167834971479 0 L 363.5167834971479 208.66666666666666 L 318.68284839525637 208.66666666666666 Z" fill="#5F77C5" stroke="#000" stroke-width="1" id="eldmere"><title>eldmere (Laurazia)</title></path><path d="M 363.5167834971479 0 L 400.5473366127851 0 L 400.5473366127851 208.66666666666666 L 363.5167834971479 208.66666666666666 Z" fill="#7598E2" stroke="#000" stroke-width="1" id="frostal"><title>frostal (Laurazia)</title></path><path d="M 400.5473366127851 0 L 436.0539190272415 0 L 436.0539190272415 208.66666666666666 L 400.5473366127851 208.66666666666666 Z" fill="#8AA3FF" stroke="#000" stroke-width="1" id="harnvik"><title>harnvik (Laurazia)</title></path><path d="M 436.0539190272415 0 L 485.9412748837656 0 L 485.9412748837656 208.66666666666666 L 436.0539190272415 208.66666666666666 Z" fill="#6073D6" stroke="#000" stroke-width="1" id="morrund"><title>morrund (Laurazia)</title></path><path d="M 485.9412748837656 0 L 529.0 0 L 529.0 208.66666666666666 L 485.9412748837656 208.66666666666666 Z" fill="#4C6FD1" stroke="#000" stroke-width="1" id="thavros"><title>thavros (Laurazia)</title></path><path d="M 0 208.66666666666666 L 84.09498987757598 208.66666666666666 L 84.09498987757598 417.3333333333333 L 0 417.3333333333333 Z" fill="#66B96A" stroke="#000" stroke-width="1" id="meridia"><title>meridia (Midlands)</title></path><path d="M 84.09498987757598 208.66666666666666 L 138.09632574709022 208.66666666666666 L 138.09632574709022 417.3333333333333 L 84.09498987757598 417.3333333333333 Z" fill="#6FBF80" stroke="#000" stroke-width="1" id="orthis"><title>orthis (Midlands)</title></path><path d="M 138.09632574709022 208.66666666666666 L 173.12987497933622 208.66666666666666 L 173.12987497933622 417.3333333333333 L 138.09632574709022 417.3333333333333 Z" fill="#5CA875" stroke="#000" stroke-width="1" id="sarlane"><title>sarlane (Midlands)</title></path><path d="M 173.12987497933622 208.66666666666666 L 248.60442880148673 208.66666666666666 L 248.60442880148673 417.3333333333333 L 173.12987497933622 417.3333333333333 Z" fill="#78C485" stroke="#000" stroke-width="1" id="vondar"><title>vondar (Midlands)</title></path><path d="M 248.60442880148673 208.66666666666666 L 282.91783241906904 208.66666666666666 L 282.91783241906904 417.3333333333333 L 248.60442880148673 417.3333333333333 Z" fill="#4A9B68" stroke="#000" stroke-width="1" id="thyrel"><title>thyrel (Midlands)</title></path><path d="M 282.91783241906904 208.66666666666666 L 320.47758204128024 208.66666666666666 L 320.47758204128024 417.3333333333333 L 282.91783241906904 417.3333333333333 Z" fill="#61B177" stroke="#000" stroke-width="1" id="kelvar"><title>kelvar (Midlands)</title></path><path d="M 320.47758204128024 208.66666666666666 L 393.24652815408103 208.66666666666666 L 393.24652815408103 417.3333333333333 L 320.47758204128024 417.3333333333333 Z" fill="#73B97E" stroke="#000" stroke-width="1" id="yarven"><title>yarven (Midlands)</title></path><path d="M 393.24652815408103 208.66666666666666 L 470.77138862389916 208.66666666666666 L 470.77138862389916 417.3333333333333 L 393.24652815408103 417.3333333333333 Z" fill="#7ECA7B" stroke="#000" stroke-width="1" id="dravon"><title>dravon (Midlands)</title></path><path d="M 470.77138862389916 208.66666666666666 L 529.0000000000001 208.66666666666666 L 529.0000000000001 417.3333333333333 L 470.77138862389916 417.3333333333333 Z" fill="#5AA467" stroke="#000" stroke-width="1" id="erlun"><title>erlun (Midlands)</title></path><path d="M 0 417.3333333333333 L 58.41630489651298 417.3333333333333 L 58.41630489651298 626.0 L 0 626.0 Z" fill="#E69A4C" stroke="#000" stroke-width="1" id="zahara"><title>zahara (Gandwana)</title></path><path d="M 58.41630489651298 417.3333333333333 L 107.15193661863762 417.3333333333333 L 107.15193661863762 626.0 L 58.41630489651298 626.0 Z" fill="#E97B3D" stroke="#000" stroke-width="1" id="teshar"><title>teshar (Gandwana)</title></path><path d="M 107.15193661863762 417.3333333333333 L 152.53141203941934 417.3333333333333 L 152.53141203941934 626.0 L 107.15193661863762 626.0 Z" fill="#F2A85B" stroke="#000" stroke-width="1" id="olyndra"><title>olyndra (Gandwana)</title></path><path d="M 152.53141203941934 417.3333333333333 L 199.62344318293634 417.3333333333333 L 199.62344318293634 626.0 L 152.53141203941934 626.0 Z" fill="#E8642B" stroke="#000" stroke-width="1" id="calvor"><title>calvor (Gandwana)</title></path><path d="M 199.62344318293634 417.3333333333333 L 265.9649647513462 417.3333333333333 L 265.9649647513462 626.0 L 199.62344318293634 626.0 Z" fill="#F08949" stroke="#000" stroke-width="1" id="nashara"><title>nashara (Gandwana)</title></path><path d="M 265.9649647513462 417.3333333333333 L 327.0326304434919 417.3333333333333 L 327.0326304434919 626.0 L 265.9649647513462 626.0 Z" fill="#F2B86E" stroke="#000" stroke-width="1" id="velthar"><title>velthar (Gandwana)</title></path><path d="M 327.0326304434919 417.3333333333333 L 367.5724179727415 417.3333333333333 L 367.5724179727415 626.0 L 327.0326304434919 626.0 Z" fill="#D87536" stroke="#000" stroke-width="1" id="kavren"><title>kavren (Gandwana)</title></path><path d="M 367.5724179727415 417.3333333333333 L 400.0653917922519 417.3333333333333 L 400.0653917922519 626.0 L 367.5724179727415 626.0 Z" fill="#EA8C44" stroke="#000" stroke-width="1" id="ulmar"><title>ulmar (Gandwana)</title></path><path d="M 400.0653917922519 417.3333333333333 L 463.96758546699726 417.3333333333333 L 463.96758546699726 626.0 L 400.0653917922519 626.0 Z" fill="#E07B3E" stroke="#000" stroke-width="1" id="sundor"><title>sundor (Gandwana)</title></path><path d="M 463.96758546699726 417.3333333333333 L 529.0 417.3333333333333 L 529.0 626.0 L 463.96758546699726 626.0 Z" fill="#F29A55" stroke="#000" stroke-width="1" id="pharel"><title>pharel (Gandwana)</title></path></svg>