<svg xmlns="http://www.w3.org/2000/svg" version="1.1" viewBox="0 0 529.0 626.0" width="529.0" height="626.0"><path d="M 59.53 120.64 L 53.00 163.31 L 43.22 185.93 L 32.60 189.05 L 25.18 204.79 L 16.60 179.81 L 9.11 164.64 L 9.16 125.47 L 9.70 85.28 L 17.16 63.08 L 22.44 44.42 L 35.39 28.33 L 40.99 71.25 L 54.84 84.24 Z" fill="#5A7DF2" stroke="#000" stroke-width="1" id="bravak"><title>bravak (organic)</title></path><path d="M 109.05 123.44 L 109.02 164.26 L 98.32 191.75 L 90.72 206.26 L 80.77 199.02 L 73.71 182.03 L 58.31 163.83 L 61.01 123.23 L 62.33 83.69 L 70.82 68.22 L 82.31 47.33 L 93.21 44.91 L 99.25 70.47 L 101.09 98.70 Z" fill="#4E9DF9" stroke="#000" stroke-width="1" id="norven"><title>norven (organic)</title></path><path d="M 159.20 129.39 L 156.81 169.03 L 147.04 179.11 L 140.41 211.47 L 128.51 191.16 L 116.30 207.19 L 108.92 171.99 L 106.26 131.76 L 114.07 96.44 L 118.38 67.30 L 132.32 46.29 L 140.03 58.31 L 149.31 67.73 L 162.52 90.29 Z" fill="#6CA6E8" stroke="#000" stroke-width="1" id="talyra"><title>talyra (organic)</title></path><path d="M 217.77 85.17 L 213.07 120.25 L 211.38 163.30 L 203.21 185.82 L 192.83 157.07 L 181.12 142.84 L 177.51 119.50 L 171.97 90.27 L 170.33 46.88 L 178.65 3.71 L 187.25 -4.70 L 201.60 -0.21 L 214.01 15.04 L 213.21 55.71 Z" fill="#7E87F9" stroke="#000" stroke-width="1" id="velmor"><title>velmor (organic)</title></path><path d="M 250.95 119.67 L 261.24 166.43 L 251.09 195.96 L 242.14 203.62 L 229.19 211.97 L 219.56 181.02 L 210.88 157.60 L 209.00 123.36 L 215.20 87.62 L 218.04 54.38 L 230.26 33.17 L 240.23 22.31 L 253.29 48.25 L 252.84 92.35 Z" fill="#4A66B0" stroke="#000" stroke-width="1" id="cryndor"><title>cryndor (organic)</title></path><path d="M 322.88 116.73 L 324.87 157.27 L 311.68 169.48 L 302.33 186.16 L 289.96 214.67 L 281.79 188.12 L 275.82 148.51 L 269.88 119.61 L 282.58 90.67 L 280.90 37.36 L 291.43 31.18 L 301.15 16.77 L 314.92 53.08 L 322.46 78.73 Z" fill="#5F77C5" stroke="#000" stroke-width="1" id="eldmere"><title>eldmere (organic)</title></path><path d="M 359.13 86.72 L 362.75 127.30 L 353.52 153.27 L 348.15 184.82 L 333.59 161.34 L 320.98 165.01 L 318.22 123.99 L 318.01 86.87 L 312.26 44.64 L 324.31 32.89 L 335.53 11.00 L 346.70 -7.92 L 351.44 20.30 L 361.57 52.05 Z" fill="#7598E2" stroke="#000" stroke-width="1" id="frostal"><title>frostal (organic)</title></path><path d="M 406.57 74.58 L 416.81 118.60 L 405.28 148.96 L 392.55 154.07 L 382.64 156.21 L 373.39 135.08 L 363.66 118.71 L 362.71 73.33 L 359.44 30.01 L 375.74 10.21 L 384.61 -11.51 L 393.28 -26.66 L 403.27 5.18 L 410.22 36.47 Z" fill="#8AA3FF" stroke="#000" stroke-width="1" id="harnvik"><title>harnvik (organic)</title></path><path d="M 472.88 78.07 L 473.72 116.16 L 465.98 158.40 L 455.32 161.45 L 442.03 169.92 L 438.06 134.51 L 430.84 101.65 L 421.83 71.95 L 423.52 34.63 L 431.25 1.51 L 445.20 -10.02 L 455.87 -16.88 L 462.32 19.71 L 474.28 35.62 Z" fill="#6073D6" stroke="#000" stroke-width="1" id="morrund"><title>morrund (organic)</title></path><path d="M 516.89 119.87 L 522.54 154.43 L 510.31 173.41 L 499.14 180.92 L 491.32 187.05 L 485.21 195.48 L 471.05 161.07 L 472.25 121.85 L 478.67 92.21 L 481.63 49.29 L 489.10 17.36 L 506.91 20.92 L 519.42 44.86 L 515.79 86.90 Z" fill="#4C6FD1" stroke="#000" stroke-width="1" id="thavros"><title>thavros (organic)</title></path><path d="M 61.40 302.68 L 54.01 326.05 L 58.41 366.23 L 48.82 392.06 L 35.87 399.98 L 20.60 376.73 L 12.99 338.02 L 9.51 303.97 L 14.52 267.02 L 21.70 236.22 L 37.22 222.64 L 42.67 237.34 L 58.15 237.81 L 59.80 263.10 Z" fill="#66B96A" stroke="#000" stroke-width="1" id="meridia"><title>meridia (organic)</title></path><path d="M 104.36 307.77 L 114.92 353.05 L 102.77 365.40 L 90.91 397.71 L 83.28 374.07 L 66.60 381.37 L 61.64 342.42 L 66.68 303.22 L 59.89 265.57 L 73.48 245.94 L 81.68 213.43 L 96.12 225.34 L 98.28 255.04 L 109.12 277.27 Z" fill="#6FBF80" stroke="#000" stroke-width="1" id="orthis"><title>orthis (organic)</title></path><path d="M 165.63 315.29 L 168.58 349.38 L 161.00 374.87 L 158.24 413.67 L 140.68 407.89 L 136.78 364.16 L 124.10 342.57 L 122.02 312.60 L 126.38 288.79 L 131.41 254.87 L 142.52 246.91 L 155.09 230.38 L 163.31 241.74 L 172.38 277.66 Z" fill="#5CA875" stroke="#000" stroke-width="1" id="sarlane"><title>sarlane (organic)</title></path><path d="M 237.16 338.14 L 236.85 388.93 L 224.38 399.63 L 217.45 427.50 L 204.92 413.48 L 190.13 421.48 L 177.85 385.52 L 183.50 342.49 L 191.89 304.98 L 198.55 286.96 L 202.73 272.13 L 213.12 266.32 L 228.33 269.05 L 236.71 303.76 Z" fill="#78C485" stroke="#000" stroke-width="1" id="vondar"><title>vondar (organic)</title></path><path d="M 297.36 295.63 L 291.40 341.65 L 277.74 353.26 L 272.64 384.10 L 256.24 379.16 L 250.43 351.73 L 233.36 334.02 L 241.10 296.70 L 239.15 259.51 L 245.26 242.57 L 256.96 203.49 L 271.72 204.59 L 278.52 222.47 L 288.07 256.25 Z" fill="#4A9B68" stroke="#000" stroke-width="1" id="thyrel"><title>thyrel (organic)</title></path><path d="M 343.30 320.45 L 343.88 355.28 L 336.40 396.97 L 326.96 396.01 L 317.42 388.38 L 304.62 390.73 L 294.54 362.00 L 288.85 317.39 L 300.72 286.13 L 300.47 243.00 L 313.20 217.42 L 324.93 260.00 L 335.06 258.20 L 345.45 286.24 Z" fill="#61B177" stroke="#000" stroke-width="1" id="kelvar"><title>kelvar (organic)</title></path><path d="M 404.57 309.26 L 408.42 349.60 L 396.82 356.65 L 391.08 396.62 L 373.51 397.65 L 365.85 386.77 L 361.80 344.80 L 358.74 306.47 L 365.26 277.68 L 368.66 243.77 L 381.43 232.58 L 385.07 226.69 L 399.28 242.15 L 402.70 278.45 Z" fill="#73B97E" stroke="#000" stroke-width="1" id="yarven"><title>yarven (organic)</title></path><path d="M 477.11 328.65 L 468.58 358.04 L 460.33 380.69 L 460.05 420.15 L 442.76 410.07 L 429.86 404.52 L 429.64 353.54 L 427.29 329.19 L 423.40 293.06 L 431.05 258.87 L 443.26 256.35 L 458.47 250.34 L 467.29 252.71 L 473.00 281.89 Z" fill="#7ECA7B" stroke="#000" stroke-width="1" id="dravon"><title>dravon (organic)</title></path><path d="M 532.44 338.75 L 536.67 379.00 L 515.82 390.35 L 511.09 403.96 L 495.29 429.95 L 487.61 390.42 L 483.11 366.35 L 479.94 336.00 L 477.56 296.39 L 487.48 267.99 L 496.91 255.99 L 509.82 254.18 L 514.54 287.05 L 533.35 295.13 Z" fill="#5AA467" stroke="#000" stroke-width="1" id="erlun"><title>erlun (organic)</title></path><path d="M 38.48 533.79 L 35.92 565.61 L 31.55 596.01 L 25.64 631.04 L 12.11 602.13 L 0.90 595.08 L -7.84 575.77 L -3.51 528.80 L -7.88 498.83 L -0.13 461.48 L 10.09 460.41 L 21.55 457.92 L 31.48 476.30 L 38.31 499.89 Z" fill="#E69A4C" stroke="#000" stroke-width="1" id="zahara"><title>zahara (organic)</title></path><path d="M 100.08 541.95 L 98.50 569.12 L 92.95 609.28 L 83.64 623.35 L 74.29 602.88 L 63.04 603.06 L 54.52 582.21 L 51.81 537.48 L 63.14 509.96 L 68.12 483.82 L 71.97 441.42 L 87.22 443.27 L 88.93 488.19 L 100.85 505.05 Z" fill="#E97B3D" stroke="#000" stroke-width="1" id="teshar"><title>teshar (organic)</title></path><path d="M 162.12 536.67 L 166.01 576.65 L 154.88 608.81 L 143.36 617.31 L 136.79 613.39 L 129.70 590.29 L 113.87 583.04 L 112.09 535.91 L 117.62 497.73 L 127.75 468.14 L 135.63 463.77 L 147.51 445.34 L 153.18 467.60 L 157.00 506.19 Z" fill="#F2A85B" stroke="#000" stroke-width="1" id="olyndra"><title>olyndra (organic)</title></path><path d="M 214.95 519.47 L 216.68 556.46 L 209.44 588.45 L 194.65 578.83 L 183.76 605.25 L 174.16 595.35 L 170.89 556.88 L 176.98 518.02 L 175.09 483.72 L 181.12 455.33 L 186.00 450.64 L 196.49 420.91 L 204.88 459.21 L 208.34 484.57 Z" fill="#E8642B" stroke="#000" stroke-width="1" id="calvor"><title>calvor (organic)</title></path><path d="M 260.21 535.50 L 250.29 561.50 L 248.93 594.22 L 239.19 630.77 L 228.81 623.99 L 217.83 619.15 L 217.12 566.06 L 211.66 537.22 L 209.39 499.94 L 223.56 469.74 L 226.88 442.98 L 242.75 445.17 L 252.10 478.04 L 254.97 505.29 Z" fill="#F08949" stroke="#000" stroke-width="1" id="nashara"><title>nashara (organic)</title></path><path d="M 331.31 508.19 L 314.94 540.87 L 313.41 572.83 L 303.41 581.38 L 295.03 598.04 L 279.73 581.92 L 278.37 541.71 L 276.51 508.36 L 281.87 478.46 L 285.09 440.39 L 292.31 423.16 L 300.02 444.66 L 316.90 432.79 L 324.70 468.31 Z" fill="#F2B86E" stroke="#000" stroke-width="1" id="velthar"><title>velthar (organic)</title></path><path d="M 371.62 504.27 L 374.56 540.23 L 362.42 563.96 L 353.94 581.94 L 340.29 599.19 L 330.91 575.60 L 327.23 535.27 L 327.26 499.73 L 328.60 467.86 L 331.90 429.96 L 339.38 406.54 L 356.25 421.14 L 364.11 436.73 L 376.65 462.65 Z" fill="#D87536" stroke="#000" stroke-width="1" id="kavren"><title>kavren (organic)</title></path><path d="M 415.32 546.00 L 412.12 582.37 L 399.07 600.55 L 392.81 638.86 L 386.61 620.40 L 370.46 606.52 L 364.26 584.86 L 369.37 544.22 L 368.21 511.49 L 374.54 475.26 L 381.85 451.89 L 396.94 455.21 L 402.22 496.29 L 409.35 507.80 Z" fill="#EA8C44" stroke="#000" stroke-width="1" id="ulmar"><title>ulmar (organic)</title></path><path d="M 477.94 516.04 L 467.93 541.32 L 465.08 585.95 L 453.57 602.43 L 445.74 576.00 L 433.63 579.14 L 428.87 546.68 L 420.09 510.79 L 436.40 488.54 L 434.74 438.89 L 444.84 449.04 L 454.05 423.71 L 468.07 448.84 L 472.81 481.19 Z" fill="#E07B3E" stroke="#000" stroke-width="1" id="sundor"><title>sundor (organic)</title></path><path d="M 524.40 540.50 L 515.16 574.00 L 511.24 602.08 L 504.66 634.74 L 492.50 600.80 L 478.61 617.11 L 473.30 576.44 L 473.65 542.28 L 477.70 504.76 L 482.37 480.97 L 493.02 457.36 L 499.00 474.98 L 511.41 478.60 L 520.81 503.10 Z" fill="#F29A55" stroke="#000" stroke-width="1" id="pharel"><title>pharel (organic)</title></path></svg>