<svg width="1920" height="960" viewBox="0 0 1920 960" fill="none" xmlns="http://www.w3.org/2000/svg">
<g clip-path="url(#clip0_2_327)">
<rect width="1920" height="960" fill="#F0F2F2"/>
<g filter="url(#filter0_d_2_327)">
<path fill-rule="evenodd" clip-rule="evenodd" d="M261.683 -246.291C365.062 -259.38 479.464 -225.228 539.062 -139.721C595.881 -58.1994 565.941 49.6908 533.435 143.6C506.137 222.465 450.961 282.835 378.486 324.179C297.165 370.569 208.539 403.113 117.62 380.803C-6.62473 350.315 -174.167 311.668 -189.995 184.681C-205.771 58.117 -31.9663 8.93173 60.2952 -79.1002C126.709 -142.469 170.629 -234.762 261.683 -246.291Z" fill="url(#paint0_linear_2_327)" shape-rendering="crispEdges"/>
</g>
<g filter="url(#filter1_d_2_327)">
<path fill-rule="evenodd" clip-rule="evenodd" d="M1262.9 -262.137C1318.23 -244.389 1374.6 -243.685 1429.58 -224.889C1501.53 -200.29 1602.06 -204.026 1634.28 -135.174C1666.41 -66.487 1573.01 2.90277 1571.62 78.7159C1569.9 172.23 1674.68 268.806 1625.4 348.314C1578.8 423.499 1459.47 404.386 1371.01 402.378C1300.42 400.776 1243.73 346.974 1173.68 338.062C1083.4 326.577 973.118 404.947 906.246 343.25C841.984 283.959 904.148 173.728 900.888 86.375C898.054 10.4365 870.339 -62.7979 888.337 -136.629C908.787 -220.521 927.697 -332.162 1009.6 -359.607C1097.16 -388.944 1174.97 -290.342 1262.9 -262.137Z" fill="#8F6528"/>
</g>
<g filter="url(#filter2_d_2_327)">
<path fill-rule="evenodd" clip-rule="evenodd" d="M1117.95 -38.53C1148.69 -39.3456 1178.55 -44.1169 1208.61 -37.696C1247.3 -29.4344 1290.68 -24.9506 1317.52 4.08854C1345.32 34.1515 1348.28 78.6755 1353.71 119.246C1359.76 164.441 1388.69 228.084 1350.93 253.679C1303.84 285.599 1238.23 215.991 1184.29 234.088C1146.3 246.836 1155.65 318.243 1117.95 331.845C1083.53 344.266 1045.15 317.55 1016.67 294.57C989.945 273.001 987.183 233.527 964.344 207.881C933.563 173.316 872.285 164.005 860.541 119.246C849.364 76.6527 876.757 28.4107 909.529 -1.01933C940.975 -29.2582 988.423 -25.4692 1030.03 -32.9572C1059.43 -38.249 1088.09 -37.7375 1117.95 -38.53Z" fill="url(#paint1_linear_2_327)"/>
</g>
<g filter="url(#filter3_d_2_327)">
<path fill-rule="evenodd" clip-rule="evenodd" d="M582.42 -149.749C630.32 -181.192 696.258 -182.121 750.793 -164.502C808.829 -145.751 874.646 -109.473 889.782 -50.4462C905.664 11.4914 831.24 63.1449 825.496 126.824C820.521 181.972 890.468 240.718 859.38 286.56C827.324 333.83 750.928 312.881 694.263 320.339C656.65 325.29 619.187 313.672 582.42 323.015C528.716 336.661 486.646 396.562 432.071 386.964C380.06 377.817 334.392 328.39 321.741 277.17C308.954 225.404 382.025 178.219 367.814 126.824C344.95 44.1364 160.406 -21.6546 222.821 -80.5736C295.271 -148.966 408.783 14.5798 506.665 -4.24976C561.334 -14.7663 535.893 -119.208 582.42 -149.749Z" fill="url(#paint2_linear_2_327)"/>
</g>
<g filter="url(#filter4_d_2_327)">
<path fill-rule="evenodd" clip-rule="evenodd" d="M601.488 -115.527C668.09 -99.1757 675.608 -14.0961 677.353 54.5272C678.905 115.563 665.016 180.077 609.657 205.753C541.695 237.275 451.869 240.231 408.172 179.378C368.265 123.803 425.807 59.2351 463.336 1.9842C499.988 -53.9283 536.623 -131.452 601.488 -115.527Z" fill="url(#paint3_linear_2_327)"/>
</g>
<g filter="url(#filter5_d_2_327)">
<path fill-rule="evenodd" clip-rule="evenodd" d="M191.986 0.0192039C260.55 -1.42444 289.833 78.8102 309.279 144.644C326.575 203.198 329.857 269.108 283.03 308.238C225.542 356.276 139.541 382.379 81.5841 334.91C28.6531 291.557 67.5229 214.296 88.9555 149.283C109.887 85.789 125.209 1.42522 191.986 0.0192039Z" fill="url(#paint4_linear_2_327)"/>
</g>
<g filter="url(#filter6_d_2_327)">
<path fill-rule="evenodd" clip-rule="evenodd" d="M874.809 -6.88655C906.055 3.09015 937.208 4.0854 968.563 13.7141C1018.29 28.9836 1093.85 16.9253 1111.59 65.8272C1129.1 114.08 1045.84 144.573 1034.17 194.559C1020.48 253.216 1082.29 327.449 1040.41 370.729C1000.96 411.49 930.757 368.547 874.809 359.219C829.243 351.622 784.524 345.377 744.99 321.477C702.383 295.718 632.005 267.233 641.951 218.443C654.151 158.595 770.115 172.944 787.222 114.31C805.336 52.2261 686.547 -11.8229 724.427 -64.2383C756.642 -108.815 822.42 -23.6143 874.809 -6.88655Z" fill="url(#paint5_linear_2_327)"/>
</g>
<g filter="url(#filter7_d_2_327)">
<path fill-rule="evenodd" clip-rule="evenodd" d="M311.407 981.191C248.847 1080.82 208.174 1241.25 93.6025 1214.56C-19.5969 1188.19 26.7814 1025.59 8.95795 910.738C-14.9189 756.874 -150.377 572.672 -18.9678 489.152C137.612 389.634 363.906 465.381 467.327 619.41C548.257 739.941 388.613 858.242 311.407 981.191Z" fill="url(#paint6_linear_2_327)"/>
</g>
<g filter="url(#filter8_d_2_327)">
<path fill-rule="evenodd" clip-rule="evenodd" d="M1333.71 617.872C1428.46 630.935 1540.89 625.264 1601.54 699.217C1663.87 775.226 1695.15 907.409 1634.76 984.96C1568.46 1070.1 1407.63 981.772 1326.29 1052.68C1247.47 1121.38 1329.44 1329.49 1225.57 1341.64C1122.33 1353.71 1127 1166.69 1065.04 1083.22C1035.77 1043.79 982.802 1028.34 960.518 984.576C937.441 939.261 938.1 888.033 939.76 837.21C941.787 775.176 926.061 700.928 971.177 658.304C1016.27 615.704 1089.84 644.045 1151.49 637.169C1213.72 630.23 1271.69 609.321 1333.71 617.872Z" fill="url(#paint7_linear_2_327)"/>
</g>
<g filter="url(#filter9_d_2_327)">
<path fill-rule="evenodd" clip-rule="evenodd" d="M1869.93 575.022C1929.77 602.442 2021.98 587.556 2049.34 647.421C2074.56 702.61 2001.43 755.004 1977.74 810.915C1955.36 863.727 1946.47 919.722 1913.92 966.961C1869.97 1030.75 1834.12 1134.02 1756.73 1131.68C1676.14 1129.25 1643.83 1022.48 1596.33 957.37C1566.7 916.756 1566.35 861.203 1532.38 824.148C1480.84 767.941 1379.96 761.969 1352.08 690.977C1323.77 618.868 1323.82 503.565 1392.01 466.685C1473.11 422.825 1564.88 513.772 1656.14 526.541C1694.73 531.941 1732.49 511.024 1770.49 519.641C1808.27 528.207 1834.73 558.889 1869.93 575.022Z" fill="url(#paint8_linear_2_327)"/>
</g>
<g filter="url(#filter10_d_2_327)">
<path fill-rule="evenodd" clip-rule="evenodd" d="M1678.08 -85.9789C1720.43 -86.9112 1757.48 -56.7699 1788.94 -28.3832C1816.87 -3.18047 1824.36 36.1038 1846.83 66.2866C1873.04 101.507 1932.81 119.884 1931.99 163.797C1931.17 208.002 1867.93 222.569 1843.24 259.234C1820.92 292.39 1830.63 348.357 1795.24 366.904C1759.48 385.647 1718.44 346.725 1678.08 345.792C1639.04 344.89 1601.38 372.868 1564 361.56C1524.64 349.654 1495.54 316.542 1471.34 283.26C1445.44 247.625 1422.42 207.811 1420.24 163.797C1418.02 118.965 1431.14 72.3434 1459.16 37.2934C1485.94 3.78742 1532.64 -2.52357 1570 -23.5631C1606.88 -44.329 1635.78 -85.0476 1678.08 -85.9789Z" fill="#528952"/>
</g>
<path d="M668.498 544.225H712.121C721.358 544.225 729.283 542.735 735.898 539.756C742.573 536.716 747.698 532.455 751.274 526.973C754.909 521.49 756.726 514.995 756.726 507.486V507.307C756.726 501.646 755.386 496.58 752.704 492.111C750.082 487.581 746.446 483.946 741.798 481.205C737.15 478.404 731.816 476.795 725.797 476.378V475.842C730.565 475.186 734.826 473.547 738.58 470.925C742.334 468.243 745.284 464.906 747.43 460.913C749.635 456.861 750.737 452.481 750.737 447.773V447.594C750.737 440.979 749.128 435.258 745.91 430.431C742.692 425.544 738.133 421.79 732.233 419.168C726.334 416.546 719.302 415.235 711.137 415.235H668.498V435.258H704.165C710.482 435.258 715.398 436.688 718.914 439.549C722.43 442.35 724.188 446.313 724.188 451.438V451.617C724.188 457.159 722.192 461.479 718.199 464.578C714.266 467.618 708.485 469.137 700.857 469.137H668.498V487.462H704.075C709.558 487.462 714.147 488.148 717.842 489.518C721.596 490.889 724.427 492.945 726.334 495.686C728.241 498.368 729.194 501.675 729.194 505.609V505.787C729.194 511.747 727.138 516.306 723.026 519.464C718.914 522.563 712.985 524.112 705.237 524.112H668.498V544.225ZM655 544.225H681.996V415.235H655V544.225Z" fill="#202020"/>
<path d="M773.932 544.225H857.334V521.967H800.928V415.235H773.932V544.225Z" fill="#202020"/>
<path d="M927.995 546.46C940.808 546.46 951.832 543.749 961.069 538.325C970.366 532.902 977.547 525.215 982.613 515.263C987.678 505.251 990.211 493.422 990.211 479.775V479.596C990.211 465.889 987.678 454.09 982.613 444.197C977.547 434.245 970.366 426.558 961.069 421.135C951.773 415.712 940.748 413 927.995 413C915.301 413 904.277 415.712 894.92 421.135C885.624 426.498 878.443 434.156 873.377 444.108C868.312 454.06 865.779 465.889 865.779 479.596V479.775C865.779 493.422 868.282 505.251 873.288 515.263C878.353 525.215 885.534 532.902 894.831 538.325C904.187 543.749 915.242 546.46 927.995 546.46ZM927.995 523.576C920.903 523.576 914.765 521.788 909.581 518.213C904.396 514.637 900.373 509.572 897.513 503.016C894.712 496.461 893.311 488.714 893.311 479.775V479.596C893.311 470.538 894.712 462.761 897.513 456.265C900.373 449.71 904.396 444.674 909.581 441.158C914.825 437.642 920.963 435.884 927.995 435.884C935.027 435.884 941.135 437.672 946.32 441.247C951.564 444.763 955.587 449.799 958.388 456.354C961.248 462.85 962.678 470.597 962.678 479.596V479.775C962.678 488.654 961.278 496.372 958.477 502.927C955.676 509.482 951.683 514.577 946.499 518.213C941.314 521.788 935.146 523.576 927.995 523.576Z" fill="#202020"/>
<path d="M1022.97 544.225H1066.59C1075.83 544.225 1083.76 542.735 1090.37 539.756C1097.05 536.716 1102.17 532.455 1105.75 526.973C1109.38 521.49 1111.2 514.995 1111.2 507.486V507.307C1111.2 501.646 1109.86 496.58 1107.18 492.111C1104.55 487.581 1100.92 483.946 1096.27 481.205C1091.62 478.404 1086.29 476.795 1080.27 476.378V475.842C1085.04 475.186 1089.3 473.547 1093.05 470.925C1096.81 468.243 1099.76 464.906 1101.9 460.913C1104.11 456.861 1105.21 452.481 1105.21 447.773V447.594C1105.21 440.979 1103.6 435.258 1100.38 430.431C1097.16 425.544 1092.61 421.79 1086.71 419.168C1080.81 416.546 1073.77 415.235 1065.61 415.235H1022.97V435.258H1058.64C1064.95 435.258 1069.87 436.688 1073.39 439.549C1076.9 442.35 1078.66 446.313 1078.66 451.438V451.617C1078.66 457.159 1076.66 461.479 1072.67 464.578C1068.74 467.618 1062.96 469.137 1055.33 469.137H1022.97V487.462H1058.55C1064.03 487.462 1068.62 488.148 1072.31 489.518C1076.07 490.889 1078.9 492.945 1080.81 495.686C1082.71 498.368 1083.67 501.675 1083.67 505.609V505.787C1083.67 511.747 1081.61 516.306 1077.5 519.464C1073.39 522.563 1067.46 524.112 1059.71 524.112H1022.97V544.225ZM1009.47 544.225H1036.47V415.235H1009.47V544.225Z" fill="#202020"/>
<path d="M1175.51 546.46C1186.36 546.46 1195.66 544.821 1203.4 541.544C1211.21 538.206 1217.17 533.528 1221.28 527.509C1225.45 521.431 1227.54 514.25 1227.54 505.966V505.877C1227.54 495.746 1224.38 487.79 1218.06 482.009C1211.81 476.169 1201.91 471.908 1188.39 469.227L1174.71 466.456C1167.32 464.966 1161.9 462.969 1158.44 460.466C1154.98 457.963 1153.26 454.686 1153.26 450.633V450.544C1153.26 447.445 1154.12 444.734 1155.85 442.409C1157.64 440.085 1160.2 438.268 1163.54 436.957C1166.87 435.586 1170.84 434.901 1175.42 434.901C1179.89 434.901 1183.83 435.556 1187.22 436.867C1190.68 438.178 1193.45 440.056 1195.54 442.499C1197.62 444.883 1198.9 447.773 1199.38 451.17L1199.47 452.242H1224.95L1224.86 450.544C1224.44 443.035 1222.21 436.45 1218.15 430.789C1214.1 425.127 1208.44 420.747 1201.17 417.648C1193.96 414.549 1185.38 413 1175.42 413C1165.89 413 1157.43 414.639 1150.04 417.916C1142.65 421.135 1136.84 425.693 1132.61 431.593C1128.38 437.433 1126.26 444.287 1126.26 452.153V452.242C1126.26 461.956 1129.48 469.852 1135.91 475.931C1142.35 482.009 1151.91 486.33 1164.61 488.893L1178.2 491.574C1186.24 493.243 1191.96 495.329 1195.36 497.832C1198.81 500.275 1200.54 503.672 1200.54 508.022V508.111C1200.54 511.389 1199.53 514.279 1197.5 516.782C1195.54 519.226 1192.74 521.133 1189.1 522.503C1185.53 523.814 1181.23 524.47 1176.23 524.47C1171.34 524.47 1166.96 523.814 1163.09 522.503C1159.21 521.133 1156.06 519.256 1153.61 516.872C1151.23 514.428 1149.74 511.538 1149.14 508.201L1148.96 507.218H1123.49L1123.58 508.648C1124.11 516.574 1126.56 523.367 1130.91 529.029C1135.26 534.631 1141.22 538.951 1148.79 541.99C1156.41 544.97 1165.32 546.46 1175.51 546.46Z" fill="#202020"/>
<g filter="url(#filter11_d_2_327)">
<path fill-rule="evenodd" clip-rule="evenodd" d="M407.066 579.849C534.521 590.415 678.243 626.488 709.214 750.609C737.014 862.021 605.788 927.354 509.301 989.568C435.646 1037.06 353.423 1069.8 275.067 1030.55C106.19 945.953 -155.106 864.659 -102.006 683.356C-48.1832 499.582 216.278 564.032 407.066 579.849Z" fill="url(#paint9_linear_2_327)"/>
</g>
<g filter="url(#filter12_d_2_327)">
<path fill-rule="evenodd" clip-rule="evenodd" d="M740.038 556C914.408 556 1049 703.778 1049 877.916C1049 1023.25 885.569 1086 740.038 1086C626.696 1086 538 991.108 538 877.916C538 729.547 591.472 556 740.038 556Z" fill="url(#paint10_linear_2_327)"/>
</g>
<g filter="url(#filter13_d_2_327)">
<path fill-rule="evenodd" clip-rule="evenodd" d="M308.473 844.551C324.18 875.136 347.467 899.012 362.59 929.891C382.38 970.301 426.003 1010.79 410.62 1053.13C395.275 1095.36 327.118 1085.37 294.761 1116.56C254.849 1155.04 258.205 1239.35 204.265 1252.06C153.259 1264.07 111.349 1206.14 75.1838 1168.3C46.3213 1138.09 45.1583 1091.83 19.5884 1058.79C-13.3642 1016.21 -92.3489 1002.92 -94.4648 949.082C-96.4981 897.348 -24.2914 877.153 10.957 839.177C41.5994 806.164 60.7 763.875 99.1739 740.459C142.891 713.853 197.593 674.972 243.361 697.734C292.285 722.065 283.511 795.946 308.473 844.551Z" fill="url(#paint11_linear_2_327)"/>
</g>
<mask id="path-16-inside-1_2_327" fill="white">
<path d="M1239.76 449.35C1258.06 410.042 1313.94 410.042 1332.24 449.35L1412.46 621.731C1428.2 655.538 1403.52 694.25 1366.23 694.25H1205.77C1168.48 694.25 1143.8 655.538 1159.54 621.731L1239.76 449.35Z"/>
</mask>
<path d="M1239.76 449.35C1258.06 410.042 1313.94 410.042 1332.24 449.35L1412.46 621.731C1428.2 655.538 1403.52 694.25 1366.23 694.25H1205.77C1168.48 694.25 1143.8 655.538 1159.54 621.731L1239.76 449.35Z" fill="#D9D9D9"/>
<path d="M1332.69 449.139C1332.39 449.28 1332.09 449.42 1331.78 449.561C1335.27 463.772 1339.06 477.846 1343.14 491.782C1356.82 538.523 1373.82 583.721 1394.13 627.374C1394.5 628.165 1394.87 628.956 1395.24 629.748C1405.59 649.452 1388.81 676.425 1366.23 675.699C1312.74 676.157 1259.26 676.964 1205.77 678.121C1181.62 680.139 1160.72 651.205 1171.76 627.422C1196.78 569.16 1221.36 510.692 1245.49 452.016C1253.01 431.648 1277.28 419 1299.9 424.651C1313.19 427.677 1325.15 436.886 1331.78 449.561C1332.09 449.42 1332.39 449.28 1332.69 449.139C1327.42 435.598 1315.88 424.185 1301.48 419.299C1277.33 410.311 1246.07 421.68 1234.03 446.685C1204.68 502.929 1175.77 559.381 1147.31 616.04C1125.5 655.484 1158.74 711.465 1205.77 710.379C1259.26 711.536 1312.74 712.343 1366.23 712.801C1414.83 715.179 1452.19 657.237 1429.69 613.714C1429.32 612.923 1428.95 612.131 1428.59 611.34C1408.27 567.687 1384.64 525.578 1357.68 485.013C1349.65 472.917 1341.32 460.96 1332.69 449.139ZM1331.78 449.561L1332.69 449.139L1331.78 449.561Z" fill="black" mask="url(#path-16-inside-1_2_327)"/>
</g>
<defs>
<filter id="filter0_d_2_327" x="-191" y="-249" width="770" height="645" filterUnits="userSpaceOnUse" color-interpolation-filters="sRGB">
<feFlood flood-opacity="0" result="BackgroundImageFix"/>
<feColorMatrix in="SourceAlpha" type="matrix" values="0 0 0 0 0 0 0 0 0 0 0 0 0 0 0 0 0 0 127 0" result="hardAlpha"/>
<feOffset dx="4" dy="4"/>
<feGaussianBlur stdDeviation="2"/>
<feComposite in2="hardAlpha" operator="out"/>
<feColorMatrix type="matrix" values="0 0 0 0 0 0 0 0 0 0 0 0 0 0 0 0 0 0 0.3 0"/>
<feBlend mode="normal" in2="BackgroundImageFix" result="effect1_dropShadow_2_327"/>
<feBlend mode="normal" in="SourceGraphic" in2="effect1_dropShadow_2_327" result="shape"/>
</filter>
<filter id="filter1_d_2_327" x="877" y="-365" width="772" height="779" filterUnits="userSpaceOnUse" color-interpolation-filters="sRGB">
<feFlood flood-opacity="0" result="BackgroundImageFix"/>
<feColorMatrix in="SourceAlpha" type="matrix" values="0 0 0 0 0 0 0 0 0 0 0 0 0 0 0 0 0 0 127 0" result="hardAlpha"/>
<feOffset dx="4" dy="4"/>
<feGaussianBlur stdDeviation="2"/>
<feComposite in2="hardAlpha" operator="out"/>
<feColorMatrix type="matrix" values="0 0 0 0 0 0 0 0 0 0 0 0 0 0 0 0 0 0 0.3 0"/>
<feBlend mode="normal" in2="BackgroundImageFix" result="effect1_dropShadow_2_327"/>
<feBlend mode="normal" in="SourceGraphic" in2="effect1_dropShadow_2_327" result="shape"/>
</filter>
<filter id="filter2_d_2_327" x="858" y="-41" width="520" height="384" filterUnits="userSpaceOnUse" color-interpolation-filters="sRGB">
<feFlood flood-opacity="0" result="BackgroundImageFix"/>
<feColorMatrix in="SourceAlpha" type="matrix" values="0 0 0 0 0 0 0 0 0 0 0 0 0 0 0 0 0 0 127 0" result="hardAlpha"/>
<feOffset dx="4" dy="4"/>
<feGaussianBlur stdDeviation="2"/>
<feComposite in2="hardAlpha" operator="out"/>
<feColorMatrix type="matrix" values="0 0 0 0 0 0 0 0 0 0 0 0 0 0 0 0 0 0 0.3 0"/>
<feBlend mode="normal" in2="BackgroundImageFix" result="effect1_dropShadow_2_327"/>
<feBlend mode="normal" in="SourceGraphic" in2="effect1_dropShadow_2_327" result="shape"/>
</filter>
<filter id="filter3_d_2_327" x="210" y="-176" width="690" height="572" filterUnits="userSpaceOnUse" color-interpolation-filters="sRGB">
<feFlood flood-opacity="0" result="BackgroundImageFix"/>
<feColorMatrix in="SourceAlpha" type="matrix" values="0 0 0 0 0 0 0 0 0 0 0 0 0 0 0 0 0 0 127 0" result="hardAlpha"/>
<feOffset dx="4" dy="4"/>
<feGaussianBlur stdDeviation="2"/>
<feComposite in2="hardAlpha" operator="out"/>
<feColorMatrix type="matrix" values="0 0 0 0 0 0 0 0 0 0 0 0 0 0 0 0 0 0 0.3 0"/>
<feBlend mode="normal" in2="BackgroundImageFix" result="effect1_dropShadow_2_327"/>
<feBlend mode="normal" in="SourceGraphic" in2="effect1_dropShadow_2_327" result="shape"/>
</filter>
<filter id="filter4_d_2_327" x="394.654" y="-117.64" width="290.812" height="353.412" filterUnits="userSpaceOnUse" color-interpolation-filters="sRGB">
<feFlood flood-opacity="0" result="BackgroundImageFix"/>
<feColorMatrix in="SourceAlpha" type="matrix" values="0 0 0 0 0 0 0 0 0 0 0 0 0 0 0 0 0 0 127 0" result="hardAlpha"/>
<feOffset dx="4" dy="4"/>
<feGaussianBlur stdDeviation="2"/>
<feComposite in2="hardAlpha" operator="out"/>
<feColorMatrix type="matrix" values="0 0 0 0 0 0 0 0 0 0 0 0 0 0 0 0 0 0 0.3 0"/>
<feBlend mode="normal" in2="BackgroundImageFix" result="effect1_dropShadow_2_327"/>
<feBlend mode="normal" in="SourceGraphic" in2="effect1_dropShadow_2_327" result="shape"/>
</filter>
<filter id="filter5_d_2_327" x="55" y="0" width="274" height="368" filterUnits="userSpaceOnUse" color-interpolation-filters="sRGB">
<feFlood flood-opacity="0" result="BackgroundImageFix"/>
<feColorMatrix in="SourceAlpha" type="matrix" values="0 0 0 0 0 0 0 0 0 0 0 0 0 0 0 0 0 0 127 0" result="hardAlpha"/>
<feOffset dx="4" dy="4"/>
<feGaussianBlur stdDeviation="2"/>
<feComposite in2="hardAlpha" operator="out"/>
<feColorMatrix type="matrix" values="0 0 0 0 0 0 0 0 0 0 0 0 0 0 0 0 0 0 0.3 0"/>
<feBlend mode="normal" in2="BackgroundImageFix" result="effect1_dropShadow_2_327"/>
<feBlend mode="normal" in="SourceGraphic" in2="effect1_dropShadow_2_327" result="shape"/>
</filter>
<filter id="filter6_d_2_327" x="641" y="-77" width="481" height="473" filterUnits="userSpaceOnUse" color-interpolation-filters="sRGB">
<feFlood flood-opacity="0" result="BackgroundImageFix"/>
<feColorMatrix in="SourceAlpha" type="matrix" values="0 0 0 0 0 0 0 0 0 0 0 0 0 0 0 0 0 0 127 0" result="hardAlpha"/>
<feOffset dx="4" dy="4"/>
<feGaussianBlur stdDeviation="2"/>
<feComposite in2="hardAlpha" operator="out"/>
<feColorMatrix type="matrix" values="0 0 0 0 0 0 0 0 0 0 0 0 0 0 0 0 0 0 0.5 0"/>
<feBlend mode="normal" in2="BackgroundImageFix" result="effect1_dropShadow_2_327"/>
<feBlend mode="normal" in="SourceGraphic" in2="effect1_dropShadow_2_327" result="shape"/>
</filter>
<filter id="filter7_d_2_327" x="-75.5421" y="444.24" width="573.166" height="781.273" filterUnits="userSpaceOnUse" color-interpolation-filters="sRGB">
<feFlood flood-opacity="0" result="BackgroundImageFix"/>
<feColorMatrix in="SourceAlpha" type="matrix" values="0 0 0 0 0 0 0 0 0 0 0 0 0 0 0 0 0 0 127 0" result="hardAlpha"/>
<feOffset dx="4" dy="4"/>
<feGaussianBlur stdDeviation="2"/>
<feComposite in2="hardAlpha" operator="out"/>
<feColorMatrix type="matrix" values="0 0 0 0 0 0 0 0 0 0 0 0 0 0 0 0 0 0 0.3 0"/>
<feBlend mode="normal" in2="BackgroundImageFix" result="effect1_dropShadow_2_327"/>
<feBlend mode="normal" in="SourceGraphic" in2="effect1_dropShadow_2_327" result="shape"/>
</filter>
<filter id="filter8_d_2_327" x="938.692" y="615.85" width="736.529" height="734.347" filterUnits="userSpaceOnUse" color-interpolation-filters="sRGB">
<feFlood flood-opacity="0" result="BackgroundImageFix"/>
<feColorMatrix in="SourceAlpha" type="matrix" values="0 0 0 0 0 0 0 0 0 0 0 0 0 0 0 0 0 0 127 0" result="hardAlpha"/>
<feOffset dx="4" dy="4"/>
<feGaussianBlur stdDeviation="2"/>
<feComposite in2="hardAlpha" operator="out"/>
<feColorMatrix type="matrix" values="0 0 0 0 0 0 0 0 0 0 0 0 0 0 0 0 0 0 0.3 0"/>
<feBlend mode="normal" in2="BackgroundImageFix" result="effect1_dropShadow_2_327"/>
<feBlend mode="normal" in="SourceGraphic" in2="effect1_dropShadow_2_327" result="shape"/>
</filter>
<filter id="filter9_d_2_327" x="1334.26" y="454.822" width="728.305" height="684.896" filterUnits="userSpaceOnUse" color-interpolation-filters="sRGB">
<feFlood flood-opacity="0" result="BackgroundImageFix"/>
<feColorMatrix in="SourceAlpha" type="matrix" values="0 0 0 0 0 0 0 0 0 0 0 0 0 0 0 0 0 0 127 0" result="hardAlpha"/>
<feOffset dx="4" dy="4"/>
<feGaussianBlur stdDeviation="2"/>
<feComposite in2="hardAlpha" operator="out"/>
<feColorMatrix type="matrix" values="0 0 0 0 0 0 0 0 0 0 0 0 0 0 0 0 0 0 0.3 0"/>
<feBlend mode="normal" in2="BackgroundImageFix" result="effect1_dropShadow_2_327"/>
<feBlend mode="normal" in="SourceGraphic" in2="effect1_dropShadow_2_327" result="shape"/>
</filter>
<filter id="filter10_d_2_327" x="1420" y="-86" width="520" height="466" filterUnits="userSpaceOnUse" color-interpolation-filters="sRGB">
<feFlood flood-opacity="0" result="BackgroundImageFix"/>
<feColorMatrix in="SourceAlpha" type="matrix" values="0 0 0 0 0 0 0 0 0 0 0 0 0 0 0 0 0 0 127 0" result="hardAlpha"/>
<feOffset dx="4" dy="4"/>
<feGaussianBlur stdDeviation="2"/>
<feComposite in2="hardAlpha" operator="out"/>
<feColorMatrix type="matrix" values="0 0 0 0 0 0 0 0 0 0 0 0 0 0 0 0 0 0 0.3 0"/>
<feBlend mode="normal" in2="BackgroundImageFix" result="effect1_dropShadow_2_327"/>
<feBlend mode="normal" in="SourceGraphic" in2="effect1_dropShadow_2_327" result="shape"/>
</filter>
<filter id="filter11_d_2_327" x="-109" y="556" width="830" height="500" filterUnits="userSpaceOnUse" color-interpolation-filters="sRGB">
<feFlood flood-opacity="0" result="BackgroundImageFix"/>
<feColorMatrix in="SourceAlpha" type="matrix" values="0 0 0 0 0 0 0 0 0 0 0 0 0 0 0 0 0 0 127 0" result="hardAlpha"/>
<feOffset dx="4" dy="4"/>
<feGaussianBlur stdDeviation="2"/>
<feComposite in2="hardAlpha" operator="out"/>
<feColorMatrix type="matrix" values="0 0 0 0 0 0 0 0 0 0 0 0 0 0 0 0 0 0 0.3 0"/>
<feBlend mode="normal" in2="BackgroundImageFix" result="effect1_dropShadow_2_327"/>
<feBlend mode="normal" in="SourceGraphic" in2="effect1_dropShadow_2_327" result="shape"/>
</filter>
<filter id="filter12_d_2_327" x="538" y="556" width="519" height="538" filterUnits="userSpaceOnUse" color-interpolation-filters="sRGB">
<feFlood flood-opacity="0" result="BackgroundImageFix"/>
<feColorMatrix in="SourceAlpha" type="matrix" values="0 0 0 0 0 0 0 0 0 0 0 0 0 0 0 0 0 0 127 0" result="hardAlpha"/>
<feOffset dx="4" dy="4"/>
<feGaussianBlur stdDeviation="2"/>
<feComposite in2="hardAlpha" operator="out"/>
<feColorMatrix type="matrix" values="0 0 0 0 0 0 0 0 0 0 0 0 0 0 0 0 0 0 0.3 0"/>
<feBlend mode="normal" in2="BackgroundImageFix" result="effect1_dropShadow_2_327"/>
<feBlend mode="normal" in="SourceGraphic" in2="effect1_dropShadow_2_327" result="shape"/>
</filter>
<filter id="filter13_d_2_327" x="-94.5068" y="690.865" width="516.349" height="570.804" filterUnits="userSpaceOnUse" color-interpolation-filters="sRGB">
<feFlood flood-opacity="0" result="BackgroundImageFix"/>
<feColorMatrix in="SourceAlpha" type="matrix" values="0 0 0 0 0 0 0 0 0 0 0 0 0 0 0 0 0 0 127 0" result="hardAlpha"/>
<feOffset dx="4" dy="4"/>
<feGaussianBlur stdDeviation="2"/>
<feComposite in2="hardAlpha" operator="out"/>
<feColorMatrix type="matrix" values="0 0 0 0 0 0 0 0 0 0 0 0 0 0 0 0 0 0 0.3 0"/>
<feBlend mode="normal" in2="BackgroundImageFix" result="effect1_dropShadow_2_327"/>
<feBlend mode="normal" in="SourceGraphic" in2="effect1_dropShadow_2_327" result="shape"/>
</filter>
<linearGradient id="paint0_linear_2_327" x1="-191" y1="69.5" x2="571" y2="69.5" gradientUnits="userSpaceOnUse">
<stop stop-color="#F857A6"/>
<stop offset="0.0001" stop-color="#546946" stop-opacity="0.83"/>
</linearGradient>
<linearGradient id="paint1_linear_2_327" x1="858" y1="147" x2="1370" y2="147" gradientUnits="userSpaceOnUse">
<stop/>
<stop offset="1" stop-color="#434343"/>
</linearGradient>
<linearGradient id="paint2_linear_2_327" x1="210" y1="106" x2="892" y2="106" gradientUnits="userSpaceOnUse">
<stop stop-color="#56CCF2"/>
<stop offset="0.0001" stop-color="#48668D"/>
</linearGradient>
<linearGradient id="paint3_linear_2_327" x1="422.587" y1="22.8666" x2="679.524" y2="91.7125" gradientUnits="userSpaceOnUse">
<stop stop-color="#4CB8C4"/>
<stop offset="0.0001" stop-color="#A8ACAB"/>
</linearGradient>
<linearGradient id="paint4_linear_2_327" x1="55" y1="180" x2="321" y2="180" gradientUnits="userSpaceOnUse">
<stop stop-color="#4CB8C4"/>
<stop offset="0.0001" stop-color="#0C482D"/>
</linearGradient>
<linearGradient id="paint5_linear_2_327" x1="641" y1="155.5" x2="1114" y2="155.5" gradientUnits="userSpaceOnUse">
<stop stop-color="#B993D6"/>
<stop offset="0.0001" stop-color="#528952"/>
</linearGradient>
<linearGradient id="paint6_linear_2_327" x1="302.197" y1="478.901" x2="-70.756" y2="1124.87" gradientUnits="userSpaceOnUse">
<stop stop-color="#EB3349"/>
<stop offset="1" stop-color="#F45C43"/>
</linearGradient>
<linearGradient id="paint7_linear_2_327" x1="920.772" y1="738.25" x2="1564.23" y2="1109.75" gradientUnits="userSpaceOnUse">
<stop stop-color="#00D2FF"/>
<stop offset="1" stop-color="#3A7BD5"/>
</linearGradient>
<linearGradient id="paint8_linear_2_327" x1="1426.23" y1="427.23" x2="1962.7" y2="963.701" gradientUnits="userSpaceOnUse">
<stop stop-color="#4AC29A"/>
<stop offset="1" stop-color="#BDFFF3"/>
</linearGradient>
<linearGradient id="paint9_linear_2_327" x1="-109" y1="802" x2="713" y2="802" gradientUnits="userSpaceOnUse">
<stop stop-color="#7474BF"/>
<stop offset="1" stop-color="#348AC7"/>
</linearGradient>
<linearGradient id="paint10_linear_2_327" x1="538" y1="821" x2="1049" y2="821" gradientUnits="userSpaceOnUse">
<stop stop-color="#1D976C"/>
<stop offset="1" stop-color="#93F9B9"/>
</linearGradient>
<linearGradient id="paint11_linear_2_327" x1="28.5739" y1="801.574" x2="348.186" y2="1121.19" gradientUnits="userSpaceOnUse">
<stop stop-color="#FFB347"/>
<stop offset="1" stop-color="#FFCC33"/>
</linearGradient>
<clipPath id="clip0_2_327">
<rect width="1920" height="960" fill="white"/>
</clipPath>
</defs>
</svg>
